<svg width="500" height="500" viewBox="0 0 500 500" fill="none" xmlns="http://www.w3.org/2000/svg">
<path d="M293.825 413V249.5H308.825V335.5C308.825 347.5 318.159 350.5 322.825 350.5V413H293.825Z" stroke="#9D5501" stroke-width="2"/>
<path d="M350.825 301.5H308.825V289.5H350.825V301.5Z" stroke="#9D5501" stroke-width="2"/>
<path d="M353.825 197.5H204.825V179.5H353.825V197.5Z" stroke="#9D5501" stroke-width="2"/>
<path d="M345.325 420H333.325V301.5L345.325 301.5V420Z" stroke="#9D5501" stroke-width="2"/>
<path d="M345.325 289.5H333.325V197.5H345.325V289.5Z" stroke="#9D5501" stroke-width="2"/>
<path d="M265.325 420H253.325V301.5L265.325 301.5V420Z" stroke="#9D5501" stroke-width="2"/>
<path d="M265.325 289.5H253.325V197.5H265.325V289.5Z" stroke="#9D5501" stroke-width="2"/>
<path d="M169.325 179.5H157.325V28H169.325V179.5Z" stroke="#9D5501" stroke-width="2"/>
<path d="M345.325 179.5H333.325V28H345.325V179.5Z" stroke="#9D5501" stroke-width="2"/>
<path d="M265.325 179.5H253.325V28H265.325V179.5Z" stroke="#9D5501" stroke-width="2"/>
<path d="M157.325 197.5V420H169.325V197.5H157.325Z" stroke="#9D5501" stroke-width="2"/>
<path d="M169.325 471H157.325V457H169.325V471Z" stroke="#9D5501" stroke-width="2"/>
<path d="M345.325 471H333.325V457H345.325V471Z" stroke="#9D5501" stroke-width="2"/>
<path d="M358.325 457H142.325C139.925 443 141.325 426.5 142.325 420H358.325C360.725 437.2 359.325 451.833 358.325 457Z" stroke="#9D5501" stroke-width="2"/>
<path d="M186.825 197.5H148.825V179.5H182.825V187.5H186.825V197.5Z" stroke="#9D5501" stroke-width="2"/>
<path d="M293.825 301.5H247.825V289.5H284.825V294.5H293.825V301.5Z" stroke="#9D5501" stroke-width="2"/>
<path d="M186.825 413V101.5H204.825V272.5C204.825 294.5 220.159 297.333 227.825 296V413H186.825Z" stroke="#9D5501" stroke-width="2"/>
</svg>
