<svg width="500" height="500" viewBox="0 0 500 500" fill="none" xmlns="http://www.w3.org/2000/svg">
<g filter="url(#filter0_i_222_130)">
<path d="M170.5 326.713C166.666 323.713 141.5 318.5 104.5 336.5C126.5 339 170.9 334.484 170.5 326.713Z" fill="url(#paint0_linear_222_130)"/>
</g>
<g filter="url(#filter1_i_222_130)">
<path d="M134.5 316.5C141.5 317.5 142.833 315 144 313.5C143.6 310.3 140.167 308.5 138.5 308C130.5 304.8 109.5 304 98 306C124 315.5 134.167 316.333 134.5 316.5Z" fill="url(#paint1_linear_222_130)"/>
</g>
<g filter="url(#filter2_i_222_130)">
<path d="M150.5 302C156.1 306.8 162.833 306.333 165.5 305.5C167.1 301.5 162.833 295.833 161 294C158.2 291.6 151.667 286.833 148 284.5C147.2 283.7 126 270 113.5 265C118.5 273.5 140.333 293 150.5 302Z" fill="url(#paint2_linear_222_130)"/>
</g>
<g filter="url(#filter3_i_222_130)">
<path d="M185.5 306.5C182.3 313.7 175.113 316.5 172.17 317C171.506 309.8 172.447 304 173 302C173.664 298.4 178.277 290.833 180.5 287.5C183.3 283.1 193 270 199.5 264.5C199 270 192 294 185.5 306.5Z" fill="url(#paint3_linear_222_130)"/>
</g>
<g filter="url(#filter4_i_222_130)">
<path d="M314.325 194C310.992 192.833 302.325 186.5 299.325 167C310.325 173 322.325 190 314.325 194Z" fill="url(#paint4_linear_222_130)"/>
</g>
<g filter="url(#filter5_i_222_130)">
<path d="M345.5 209.035C340.167 202.856 332.025 183.5 342.825 155.5C347.325 170.19 354.3 201.462 345.5 209.035Z" fill="url(#paint5_linear_222_130)"/>
</g>
<g filter="url(#filter6_i_222_130)">
<path d="M360 202C361.667 194.167 372.325 176.4 402.325 168C394.325 184 372 204.5 360 202Z" fill="url(#paint6_linear_222_130)"/>
</g>
<g filter="url(#filter7_i_222_130)">
<path d="M345.5 240C352.166 236.333 372.125 231.4 399.325 241C380.992 244.333 344.7 248.8 345.5 240Z" fill="url(#paint7_linear_222_130)"/>
</g>
<g filter="url(#filter8_i_222_130)">
<path d="M360.325 274.5C347.125 253.7 331.837 243.5 325.756 241L320.5 241.615C316.295 250.107 345.24 267.077 360.325 274.5Z" fill="url(#paint8_linear_222_130)"/>
</g>
<path d="M140.719 313.96C140.189 313.805 139.885 313.249 140.04 312.719C140.195 312.189 140.751 311.885 141.281 312.04L140.719 313.96ZM162.763 304.176C162.39 303.769 162.417 303.136 162.824 302.763C163.231 302.39 163.864 302.417 164.237 302.824L162.763 304.176ZM169.5 311.591L170.381 311.117L169.5 311.591ZM172.17 317L171.261 317.417L172.17 317ZM166.113 324.082L166.62 323.22L166.113 324.082ZM168.5 325.5L169.015 324.643L169.015 324.643L168.5 325.5ZM170.5 326.713L171.022 325.86L171.022 325.86L170.5 326.713ZM205.393 352.295C199.086 347.482 188.108 339.188 177.456 332.283L178.544 330.605C189.266 337.555 200.297 345.891 206.607 350.705L205.393 352.295ZM168.619 312.064C167.307 309.623 164.002 305.528 162.763 304.176L164.237 302.824C165.516 304.219 168.952 308.458 170.381 311.117L168.619 312.064ZM177.056 331.776C175.837 328.303 173.673 322.668 171.261 317.417L173.079 316.583C175.522 321.901 177.709 327.596 178.943 331.113L177.056 331.776ZM171.261 317.417C170.399 315.54 169.508 313.717 168.619 312.064L170.381 311.117C171.294 312.817 172.204 314.678 173.079 316.583L171.261 317.417ZM165.607 324.944C157.393 320.124 146.583 315.676 140.719 313.96L141.281 312.04C147.304 313.803 158.265 318.317 166.62 323.22L165.607 324.944ZM167.985 326.357C167.189 325.879 166.396 325.408 165.607 324.944L166.62 323.22C167.415 323.686 168.214 324.161 169.015 324.643L167.985 326.357ZM177.456 332.283C174.978 330.677 172.472 329.093 169.978 327.566L171.022 325.86C173.533 327.397 176.054 328.991 178.544 330.605L177.456 332.283ZM169.978 327.566C169.312 327.159 168.648 326.755 167.985 326.357L169.015 324.643C169.683 325.044 170.352 325.45 171.022 325.86L169.978 327.566Z" fill="#CCD42C"/>
<g filter="url(#filter9_i_222_130)">
<path d="M197.497 130.498C203.922 126.724 220.967 127.704 230 128.806C227.5 99.9019 223.364 37.9765 226.564 21.9937C220.23 23.6585 204.862 25.9894 194.061 21.9937L195.779 76.2461L197.497 130.498Z" fill="url(#paint9_linear_222_130)"/>
</g>
<g filter="url(#filter10_i_222_130)">
<path d="M203.562 243.756C213.163 248.151 230.564 245.92 238.065 244.256C235.398 208.461 229.9 136.692 231.5 135.493C233.5 133.995 199.997 131.498 197.497 137.491C200.331 172.62 204 241 203.562 243.756Z" fill="url(#paint10_linear_222_130)"/>
</g>
<g filter="url(#filter11_i_222_130)">
<path d="M204.062 355.636C223.664 352.839 234.898 354.47 238.065 355.636C237.565 323.504 236.865 257.441 238.065 250.249C229.731 251.914 211.163 254.145 203.562 249.75C205.713 275.066 207.671 332.838 204.062 355.636Z" fill="url(#paint11_linear_222_130)"/>
</g>
<g filter="url(#filter12_i_222_130)">
<path d="M202.062 469.014C217.663 472.611 231.898 470.513 237.065 469.014L238.065 361.63C226.864 357.234 210.729 359.798 204.062 361.63C209.663 382.407 205.062 441.877 202.062 469.014Z" fill="url(#paint12_linear_222_130)"/>
</g>
<g filter="url(#filter13_i_222_130)">
<path d="M297.825 142.5C291.401 138.721 274.357 139.702 265.325 140.806C267.825 111.87 272.025 50 268.825 34C275.159 35.6667 290.525 38 301.325 34L297.825 142.5Z" fill="url(#paint13_linear_222_130)"/>
</g>
<g filter="url(#filter14_i_222_130)">
<path d="M292 256C282.4 260.4 264.825 258.167 257.325 256.5C259.992 220.667 265.425 148.7 263.825 147.5C261.825 146 295.325 143.5 297.825 149.5C295.025 155.1 293.325 181.001 292.825 193.251C292.425 211.451 292.167 245.333 292 256Z" fill="url(#paint14_linear_222_130)"/>
</g>
<g filter="url(#filter15_i_222_130)">
<path d="M291.325 368C271.725 365.2 260.492 366.833 257.325 368C257.825 335.833 258.525 269.7 257.325 262.5C265.658 264.167 284.225 266.4 291.825 262C289.492 289.5 286.125 349.2 291.325 368Z" fill="url(#paint15_linear_222_130)"/>
</g>
<g filter="url(#filter16_i_222_130)">
<path d="M293.325 481.5C277.725 485.1 263.492 483 258.325 481.5L257.325 374C268.525 369.6 284.659 372.166 291.325 374C285.725 394.8 290.325 454.333 293.325 481.5Z" fill="url(#paint16_linear_222_130)"/>
</g>
<g filter="url(#filter17_i_222_130)">
<path d="M194.061 21.9936C204.862 25.9893 220.23 23.6585 226.564 21.9936C227.73 21.3276 229.364 19.2965 226.564 16.4995C219.896 17.6649 204.062 19.1966 194.061 16C193.26 17.7418 192.139 21.3791 194.061 21.9936Z" fill="url(#paint17_linear_222_130)"/>
</g>
<g filter="url(#filter18_i_222_130)">
<path d="M231.5 135.493C231.555 135.452 231.583 135.411 231.586 135.369C232.409 134.13 233.432 131.316 231.5 129C231.03 128.936 230.529 128.871 230 128.806C220.967 127.704 203.922 126.724 197.497 130.498C196.33 132.33 194.697 136.292 197.497 137.491C199.929 131.661 231.697 133.865 231.586 135.369C231.557 135.412 231.528 135.454 231.5 135.493Z" fill="url(#paint18_linear_222_130)"/>
</g>
<g filter="url(#filter19_i_222_130)">
<path d="M203.562 249.749C211.163 254.145 229.731 251.914 238.065 250.249C239.065 249.416 240.465 247.052 238.065 244.255C230.564 245.92 213.163 248.151 203.562 243.756C202.729 245.254 201.562 248.551 203.562 249.749Z" fill="url(#paint19_linear_222_130)"/>
</g>
<g filter="url(#filter20_i_222_130)">
<path d="M238.065 361.63C226.864 357.234 210.729 359.798 204.062 361.63C201.662 358.433 203.062 356.302 204.062 355.636C223.663 352.839 234.898 354.471 238.065 355.636C239.665 358.433 238.731 360.797 238.065 361.63Z" fill="url(#paint20_linear_222_130)"/>
</g>
<g filter="url(#filter21_i_222_130)">
<path d="M301.325 34C290.525 38 275.159 35.6667 268.825 34C267.659 33.3333 266.025 31.3 268.825 28.5C275.492 29.6667 291.325 31.2 301.325 28C302.126 29.7437 303.247 33.3849 301.325 34Z" fill="url(#paint21_linear_222_130)"/>
</g>
<g filter="url(#filter22_i_222_130)">
<path d="M263.825 147.5C263.771 147.459 263.742 147.418 263.739 147.375C262.916 146.135 261.893 143.318 263.825 141C264.295 140.935 264.796 140.87 265.325 140.806C274.357 139.702 291.401 138.721 297.825 142.5C298.992 144.333 300.625 148.3 297.825 149.5C295.393 143.663 263.628 145.87 263.739 147.375C263.768 147.419 263.797 147.46 263.825 147.5Z" fill="url(#paint22_linear_222_130)"/>
</g>
<g filter="url(#filter23_i_222_130)">
<path d="M257.325 374C268.525 369.6 284.659 372.167 291.325 374C293.725 370.8 292.325 368.667 291.325 368C271.725 365.2 260.492 366.833 257.325 368C255.725 370.8 256.659 373.167 257.325 374Z" fill="url(#paint23_linear_222_130)"/>
</g>
<g filter="url(#filter24_i_222_130)">
<path d="M292.825 201.25C285.212 198.332 277.544 194.713 272.325 192C280.095 191.507 286.939 192.078 292.825 193.251C306.03 195.882 314.409 201.541 317.581 205C313.972 208.029 303.451 205.323 292.825 201.25Z" fill="url(#paint24_linear_222_130)"/>
</g>
<path d="M362.838 201.441C363.358 201.254 363.628 200.682 363.441 200.162C363.254 199.642 362.682 199.372 362.162 199.559L362.838 201.441ZM314.992 192.124C315.061 191.576 314.672 191.076 314.124 191.008C313.576 190.939 313.076 191.328 313.008 191.876L314.992 192.124ZM320.581 212L319.659 212.386L320.581 212ZM317.581 205L318.514 204.64L317.581 205ZM347.257 241.47C347.793 241.604 348.336 241.278 348.47 240.743C348.604 240.207 348.278 239.664 347.743 239.53L347.257 241.47ZM325.756 241L325.646 240.006L325.756 241ZM320.5 241.615L320.622 242.608L320.5 241.615ZM345.5 209.035L346.012 209.894L346.012 209.894L345.5 209.035ZM326.41 222.865C325.067 219.911 323.262 215.818 321.504 211.614L319.659 212.386C321.425 216.61 323.239 220.723 324.59 223.693L326.41 222.865ZM321.504 211.614C320.483 209.173 319.382 206.888 318.514 204.64L316.648 205.36C317.516 207.608 318.707 210.11 319.659 212.386L321.504 211.614ZM318.514 204.64C317.531 202.092 316.6 199.235 315.94 196.841C315.61 195.643 315.35 194.574 315.185 193.725C315.01 192.824 314.97 192.304 314.992 192.124L313.008 191.876C312.94 192.418 313.053 193.24 313.222 194.106C313.4 195.023 313.673 196.146 314.012 197.373C314.689 199.828 315.64 202.748 316.648 205.36L318.514 204.64ZM292.263 258.646C293.667 256.989 295.457 254.59 297.402 252.1C299.366 249.587 301.517 246.941 303.705 244.698L302.273 243.302C300.005 245.627 297.799 248.343 295.826 250.869C293.834 253.419 292.108 255.735 290.737 257.354L292.263 258.646ZM303.705 244.698C310.046 238.197 317.8 230.862 326.133 224.054L324.868 222.505C316.464 229.371 308.655 236.759 302.273 243.302L303.705 244.698ZM325.867 241.994C330.337 241.496 335.113 241.216 339.081 241.138C341.065 241.099 342.839 241.111 344.265 241.171C345.718 241.232 346.737 241.34 347.257 241.47L347.743 239.53C347.004 239.345 345.802 239.233 344.349 239.173C342.87 239.11 341.053 239.099 339.042 239.138C335.019 239.217 330.182 239.501 325.646 240.006L325.867 241.994ZM303.138 244.989C307.689 244.303 314.114 243.403 320.622 242.608L320.379 240.622C313.851 241.42 307.407 242.323 302.84 243.011L303.138 244.989ZM320.622 242.608C322.376 242.393 324.136 242.187 325.867 241.994L325.646 240.006C323.907 240.2 322.14 240.407 320.379 240.622L320.622 242.608ZM326.133 224.054C332.553 218.808 339.306 213.883 346.012 209.894L344.989 208.175C338.175 212.229 331.34 217.216 324.868 222.505L326.133 224.054ZM346.012 209.894C350.898 206.987 358.213 203.103 362.838 201.441L362.162 199.559C357.35 201.288 349.901 205.253 344.989 208.175L346.012 209.894Z" fill="#CCD42C"/>
<g filter="url(#filter25_i_222_130)">
<path d="M291.825 262C284.225 266.4 265.658 264.167 257.325 262.5C256.325 261.667 254.925 259.3 257.325 256.5C264.825 258.167 282.4 260.4 292 256C292.833 257.5 293.825 260.8 291.825 262Z" fill="url(#paint25_linear_222_130)"/>
</g>
<defs>
<filter id="filter0_i_222_130" x="104.5" y="323.634" width="66.0024" height="14.5574" filterUnits="userSpaceOnUse" color-interpolation-filters="sRGB">
<feFlood flood-opacity="0" result="BackgroundImageFix"/>
<feBlend mode="normal" in="SourceGraphic" in2="BackgroundImageFix" result="shape"/>
<feColorMatrix in="SourceAlpha" type="matrix" values="0 0 0 0 0 0 0 0 0 0 0 0 0 0 0 0 0 0 127 0" result="hardAlpha"/>
<feOffset dy="1"/>
<feGaussianBlur stdDeviation="2"/>
<feComposite in2="hardAlpha" operator="arithmetic" k2="-1" k3="1"/>
<feColorMatrix type="matrix" values="0 0 0 0 0 0 0 0 0 0 0 0 0 0 0 0 0 0 0.1 0"/>
<feBlend mode="normal" in2="shape" result="effect1_innerShadow_222_130"/>
</filter>
<filter id="filter1_i_222_130" x="98" y="304.91" width="46" height="12.8201" filterUnits="userSpaceOnUse" color-interpolation-filters="sRGB">
<feFlood flood-opacity="0" result="BackgroundImageFix"/>
<feBlend mode="normal" in="SourceGraphic" in2="BackgroundImageFix" result="shape"/>
<feColorMatrix in="SourceAlpha" type="matrix" values="0 0 0 0 0 0 0 0 0 0 0 0 0 0 0 0 0 0 127 0" result="hardAlpha"/>
<feOffset dy="1"/>
<feGaussianBlur stdDeviation="2"/>
<feComposite in2="hardAlpha" operator="arithmetic" k2="-1" k3="1"/>
<feColorMatrix type="matrix" values="0 0 0 0 0 0 0 0 0 0 0 0 0 0 0 0 0 0 0.1 0"/>
<feBlend mode="normal" in2="shape" result="effect1_innerShadow_222_130"/>
</filter>
<filter id="filter2_i_222_130" x="113.5" y="265" width="52.3521" height="42.0303" filterUnits="userSpaceOnUse" color-interpolation-filters="sRGB">
<feFlood flood-opacity="0" result="BackgroundImageFix"/>
<feBlend mode="normal" in="SourceGraphic" in2="BackgroundImageFix" result="shape"/>
<feColorMatrix in="SourceAlpha" type="matrix" values="0 0 0 0 0 0 0 0 0 0 0 0 0 0 0 0 0 0 127 0" result="hardAlpha"/>
<feOffset dy="1"/>
<feGaussianBlur stdDeviation="2"/>
<feComposite in2="hardAlpha" operator="arithmetic" k2="-1" k3="1"/>
<feColorMatrix type="matrix" values="0 0 0 0 0 0 0 0 0 0 0 0 0 0 0 0 0 0 0.1 0"/>
<feBlend mode="normal" in2="shape" result="effect1_innerShadow_222_130"/>
</filter>
<filter id="filter3_i_222_130" x="171.942" y="264.5" width="27.5581" height="53.5" filterUnits="userSpaceOnUse" color-interpolation-filters="sRGB">
<feFlood flood-opacity="0" result="BackgroundImageFix"/>
<feBlend mode="normal" in="SourceGraphic" in2="BackgroundImageFix" result="shape"/>
<feColorMatrix in="SourceAlpha" type="matrix" values="0 0 0 0 0 0 0 0 0 0 0 0 0 0 0 0 0 0 127 0" result="hardAlpha"/>
<feOffset dy="1"/>
<feGaussianBlur stdDeviation="2"/>
<feComposite in2="hardAlpha" operator="arithmetic" k2="-1" k3="1"/>
<feColorMatrix type="matrix" values="0 0 0 0 0 0 0 0 0 0 0 0 0 0 0 0 0 0 0.1 0"/>
<feBlend mode="normal" in2="shape" result="effect1_innerShadow_222_130"/>
</filter>
<filter id="filter4_i_222_130" x="299.325" y="167" width="17.6021" height="28" filterUnits="userSpaceOnUse" color-interpolation-filters="sRGB">
<feFlood flood-opacity="0" result="BackgroundImageFix"/>
<feBlend mode="normal" in="SourceGraphic" in2="BackgroundImageFix" result="shape"/>
<feColorMatrix in="SourceAlpha" type="matrix" values="0 0 0 0 0 0 0 0 0 0 0 0 0 0 0 0 0 0 127 0" result="hardAlpha"/>
<feOffset dy="1"/>
<feGaussianBlur stdDeviation="2"/>
<feComposite in2="hardAlpha" operator="arithmetic" k2="-1" k3="1"/>
<feColorMatrix type="matrix" values="0 0 0 0 0 0 0 0 0 0 0 0 0 0 0 0 0 0 0.1 0"/>
<feBlend mode="normal" in2="shape" result="effect1_innerShadow_222_130"/>
</filter>
<filter id="filter5_i_222_130" x="337.511" y="155.5" width="12.2144" height="54.5347" filterUnits="userSpaceOnUse" color-interpolation-filters="sRGB">
<feFlood flood-opacity="0" result="BackgroundImageFix"/>
<feBlend mode="normal" in="SourceGraphic" in2="BackgroundImageFix" result="shape"/>
<feColorMatrix in="SourceAlpha" type="matrix" values="0 0 0 0 0 0 0 0 0 0 0 0 0 0 0 0 0 0 127 0" result="hardAlpha"/>
<feOffset dy="1"/>
<feGaussianBlur stdDeviation="2"/>
<feComposite in2="hardAlpha" operator="arithmetic" k2="-1" k3="1"/>
<feColorMatrix type="matrix" values="0 0 0 0 0 0 0 0 0 0 0 0 0 0 0 0 0 0 0.1 0"/>
<feBlend mode="normal" in2="shape" result="effect1_innerShadow_222_130"/>
</filter>
<filter id="filter6_i_222_130" x="360" y="168" width="42.3252" height="35.2085" filterUnits="userSpaceOnUse" color-interpolation-filters="sRGB">
<feFlood flood-opacity="0" result="BackgroundImageFix"/>
<feBlend mode="normal" in="SourceGraphic" in2="BackgroundImageFix" result="shape"/>
<feColorMatrix in="SourceAlpha" type="matrix" values="0 0 0 0 0 0 0 0 0 0 0 0 0 0 0 0 0 0 127 0" result="hardAlpha"/>
<feOffset dy="1"/>
<feGaussianBlur stdDeviation="2"/>
<feComposite in2="hardAlpha" operator="arithmetic" k2="-1" k3="1"/>
<feColorMatrix type="matrix" values="0 0 0 0 0 0 0 0 0 0 0 0 0 0 0 0 0 0 0.1 0"/>
<feBlend mode="normal" in2="shape" result="effect1_innerShadow_222_130"/>
</filter>
<filter id="filter7_i_222_130" x="345.487" y="235.421" width="53.8384" height="10.7168" filterUnits="userSpaceOnUse" color-interpolation-filters="sRGB">
<feFlood flood-opacity="0" result="BackgroundImageFix"/>
<feBlend mode="normal" in="SourceGraphic" in2="BackgroundImageFix" result="shape"/>
<feColorMatrix in="SourceAlpha" type="matrix" values="0 0 0 0 0 0 0 0 0 0 0 0 0 0 0 0 0 0 127 0" result="hardAlpha"/>
<feOffset dy="1"/>
<feGaussianBlur stdDeviation="2"/>
<feComposite in2="hardAlpha" operator="arithmetic" k2="-1" k3="1"/>
<feColorMatrix type="matrix" values="0 0 0 0 0 0 0 0 0 0 0 0 0 0 0 0 0 0 0.1 0"/>
<feBlend mode="normal" in2="shape" result="effect1_innerShadow_222_130"/>
</filter>
<filter id="filter8_i_222_130" x="320.087" y="241" width="40.2383" height="34.5" filterUnits="userSpaceOnUse" color-interpolation-filters="sRGB">
<feFlood flood-opacity="0" result="BackgroundImageFix"/>
<feBlend mode="normal" in="SourceGraphic" in2="BackgroundImageFix" result="shape"/>
<feColorMatrix in="SourceAlpha" type="matrix" values="0 0 0 0 0 0 0 0 0 0 0 0 0 0 0 0 0 0 127 0" result="hardAlpha"/>
<feOffset dy="1"/>
<feGaussianBlur stdDeviation="2"/>
<feComposite in2="hardAlpha" operator="arithmetic" k2="-1" k3="1"/>
<feColorMatrix type="matrix" values="0 0 0 0 0 0 0 0 0 0 0 0 0 0 0 0 0 0 0.1 0"/>
<feBlend mode="normal" in2="shape" result="effect1_innerShadow_222_130"/>
</filter>
<filter id="filter9_i_222_130" x="194.061" y="21.9937" width="35.939" height="109.505" filterUnits="userSpaceOnUse" color-interpolation-filters="sRGB">
<feFlood flood-opacity="0" result="BackgroundImageFix"/>
<feBlend mode="normal" in="SourceGraphic" in2="BackgroundImageFix" result="shape"/>
<feColorMatrix in="SourceAlpha" type="matrix" values="0 0 0 0 0 0 0 0 0 0 0 0 0 0 0 0 0 0 127 0" result="hardAlpha"/>
<feOffset dy="1"/>
<feGaussianBlur stdDeviation="2"/>
<feComposite in2="hardAlpha" operator="arithmetic" k2="-1" k3="1"/>
<feColorMatrix type="matrix" values="0 0 0 0 0 0 0 0 0 0 0 0 0 0 0 0 0 0 0.1 0"/>
<feBlend mode="normal" in2="shape" result="effect1_innerShadow_222_130"/>
</filter>
<filter id="filter10_i_222_130" x="197.497" y="133.68" width="40.5679" height="113.643" filterUnits="userSpaceOnUse" color-interpolation-filters="sRGB">
<feFlood flood-opacity="0" result="BackgroundImageFix"/>
<feBlend mode="normal" in="SourceGraphic" in2="BackgroundImageFix" result="shape"/>
<feColorMatrix in="SourceAlpha" type="matrix" values="0 0 0 0 0 0 0 0 0 0 0 0 0 0 0 0 0 0 127 0" result="hardAlpha"/>
<feOffset dy="1"/>
<feGaussianBlur stdDeviation="2"/>
<feComposite in2="hardAlpha" operator="arithmetic" k2="-1" k3="1"/>
<feColorMatrix type="matrix" values="0 0 0 0 0 0 0 0 0 0 0 0 0 0 0 0 0 0 0.1 0"/>
<feBlend mode="normal" in2="shape" result="effect1_innerShadow_222_130"/>
</filter>
<filter id="filter11_i_222_130" x="203.562" y="249.75" width="34.5029" height="106.886" filterUnits="userSpaceOnUse" color-interpolation-filters="sRGB">
<feFlood flood-opacity="0" result="BackgroundImageFix"/>
<feBlend mode="normal" in="SourceGraphic" in2="BackgroundImageFix" result="shape"/>
<feColorMatrix in="SourceAlpha" type="matrix" values="0 0 0 0 0 0 0 0 0 0 0 0 0 0 0 0 0 0 127 0" result="hardAlpha"/>
<feOffset dy="1"/>
<feGaussianBlur stdDeviation="2"/>
<feComposite in2="hardAlpha" operator="arithmetic" k2="-1" k3="1"/>
<feColorMatrix type="matrix" values="0 0 0 0 0 0 0 0 0 0 0 0 0 0 0 0 0 0 0.1 0"/>
<feBlend mode="normal" in2="shape" result="effect1_innerShadow_222_130"/>
</filter>
<filter id="filter12_i_222_130" x="202.062" y="359.203" width="36.0029" height="112.797" filterUnits="userSpaceOnUse" color-interpolation-filters="sRGB">
<feFlood flood-opacity="0" result="BackgroundImageFix"/>
<feBlend mode="normal" in="SourceGraphic" in2="BackgroundImageFix" result="shape"/>
<feColorMatrix in="SourceAlpha" type="matrix" values="0 0 0 0 0 0 0 0 0 0 0 0 0 0 0 0 0 0 127 0" result="hardAlpha"/>
<feOffset dy="1"/>
<feGaussianBlur stdDeviation="2"/>
<feComposite in2="hardAlpha" operator="arithmetic" k2="-1" k3="1"/>
<feColorMatrix type="matrix" values="0 0 0 0 0 0 0 0 0 0 0 0 0 0 0 0 0 0 0.1 0"/>
<feBlend mode="normal" in2="shape" result="effect1_innerShadow_222_130"/>
</filter>
<filter id="filter13_i_222_130" x="265.325" y="34" width="36" height="109.5" filterUnits="userSpaceOnUse" color-interpolation-filters="sRGB">
<feFlood flood-opacity="0" result="BackgroundImageFix"/>
<feBlend mode="normal" in="SourceGraphic" in2="BackgroundImageFix" result="shape"/>
<feColorMatrix in="SourceAlpha" type="matrix" values="0 0 0 0 0 0 0 0 0 0 0 0 0 0 0 0 0 0 127 0" result="hardAlpha"/>
<feOffset dy="1"/>
<feGaussianBlur stdDeviation="2"/>
<feComposite in2="hardAlpha" operator="arithmetic" k2="-1" k3="1"/>
<feColorMatrix type="matrix" values="0 0 0 0 0 0 0 0 0 0 0 0 0 0 0 0 0 0 0.1 0"/>
<feBlend mode="normal" in2="shape" result="effect1_innerShadow_222_130"/>
</filter>
<filter id="filter14_i_222_130" x="257.325" y="145.684" width="40.5" height="113.885" filterUnits="userSpaceOnUse" color-interpolation-filters="sRGB">
<feFlood flood-opacity="0" result="BackgroundImageFix"/>
<feBlend mode="normal" in="SourceGraphic" in2="BackgroundImageFix" result="shape"/>
<feColorMatrix in="SourceAlpha" type="matrix" values="0 0 0 0 0 0 0 0 0 0 0 0 0 0 0 0 0 0 127 0" result="hardAlpha"/>
<feOffset dy="1"/>
<feGaussianBlur stdDeviation="2"/>
<feComposite in2="hardAlpha" operator="arithmetic" k2="-1" k3="1"/>
<feColorMatrix type="matrix" values="0 0 0 0 0 0 0 0 0 0 0 0 0 0 0 0 0 0 0.1 0"/>
<feBlend mode="normal" in2="shape" result="effect1_innerShadow_222_130"/>
</filter>
<filter id="filter15_i_222_130" x="257.325" y="262" width="34.5" height="107" filterUnits="userSpaceOnUse" color-interpolation-filters="sRGB">
<feFlood flood-opacity="0" result="BackgroundImageFix"/>
<feBlend mode="normal" in="SourceGraphic" in2="BackgroundImageFix" result="shape"/>
<feColorMatrix in="SourceAlpha" type="matrix" values="0 0 0 0 0 0 0 0 0 0 0 0 0 0 0 0 0 0 127 0" result="hardAlpha"/>
<feOffset dy="1"/>
<feGaussianBlur stdDeviation="2"/>
<feComposite in2="hardAlpha" operator="arithmetic" k2="-1" k3="1"/>
<feColorMatrix type="matrix" values="0 0 0 0 0 0 0 0 0 0 0 0 0 0 0 0 0 0 0.1 0"/>
<feBlend mode="normal" in2="shape" result="effect1_innerShadow_222_130"/>
</filter>
<filter id="filter16_i_222_130" x="257.325" y="371.57" width="36" height="112.917" filterUnits="userSpaceOnUse" color-interpolation-filters="sRGB">
<feFlood flood-opacity="0" result="BackgroundImageFix"/>
<feBlend mode="normal" in="SourceGraphic" in2="BackgroundImageFix" result="shape"/>
<feColorMatrix in="SourceAlpha" type="matrix" values="0 0 0 0 0 0 0 0 0 0 0 0 0 0 0 0 0 0 127 0" result="hardAlpha"/>
<feOffset dy="1"/>
<feGaussianBlur stdDeviation="2"/>
<feComposite in2="hardAlpha" operator="arithmetic" k2="-1" k3="1"/>
<feColorMatrix type="matrix" values="0 0 0 0 0 0 0 0 0 0 0 0 0 0 0 0 0 0 0.1 0"/>
<feBlend mode="normal" in2="shape" result="effect1_innerShadow_222_130"/>
</filter>
<filter id="filter17_i_222_130" x="193" y="16" width="35.1099" height="9.19971" filterUnits="userSpaceOnUse" color-interpolation-filters="sRGB">
<feFlood flood-opacity="0" result="BackgroundImageFix"/>
<feBlend mode="normal" in="SourceGraphic" in2="BackgroundImageFix" result="shape"/>
<feColorMatrix in="SourceAlpha" type="matrix" values="0 0 0 0 0 0 0 0 0 0 0 0 0 0 0 0 0 0 127 0" result="hardAlpha"/>
<feOffset dy="1"/>
<feGaussianBlur stdDeviation="2"/>
<feComposite in2="hardAlpha" operator="arithmetic" k2="-1" k3="1"/>
<feColorMatrix type="matrix" values="0 0 0 0 0 0 0 0 0 0 0 0 0 0 0 0 0 0 0.1 0"/>
<feBlend mode="normal" in2="shape" result="effect1_innerShadow_222_130"/>
</filter>
<filter id="filter18_i_222_130" x="195.951" y="127.813" width="36.6533" height="10.6777" filterUnits="userSpaceOnUse" color-interpolation-filters="sRGB">
<feFlood flood-opacity="0" result="BackgroundImageFix"/>
<feBlend mode="normal" in="SourceGraphic" in2="BackgroundImageFix" result="shape"/>
<feColorMatrix in="SourceAlpha" type="matrix" values="0 0 0 0 0 0 0 0 0 0 0 0 0 0 0 0 0 0 127 0" result="hardAlpha"/>
<feOffset dy="1"/>
<feGaussianBlur stdDeviation="2"/>
<feComposite in2="hardAlpha" operator="arithmetic" k2="-1" k3="1"/>
<feColorMatrix type="matrix" values="0 0 0 0 0 0 0 0 0 0 0 0 0 0 0 0 0 0 0.1 0"/>
<feBlend mode="normal" in2="shape" result="effect1_innerShadow_222_130"/>
</filter>
<filter id="filter19_i_222_130" x="202.458" y="243.756" width="36.9321" height="9.55981" filterUnits="userSpaceOnUse" color-interpolation-filters="sRGB">
<feFlood flood-opacity="0" result="BackgroundImageFix"/>
<feBlend mode="normal" in="SourceGraphic" in2="BackgroundImageFix" result="shape"/>
<feColorMatrix in="SourceAlpha" type="matrix" values="0 0 0 0 0 0 0 0 0 0 0 0 0 0 0 0 0 0 127 0" result="hardAlpha"/>
<feOffset dy="1"/>
<feGaussianBlur stdDeviation="2"/>
<feComposite in2="hardAlpha" operator="arithmetic" k2="-1" k3="1"/>
<feColorMatrix type="matrix" values="0 0 0 0 0 0 0 0 0 0 0 0 0 0 0 0 0 0 0.1 0"/>
<feBlend mode="normal" in2="shape" result="effect1_innerShadow_222_130"/>
</filter>
<filter id="filter20_i_222_130" x="202.736" y="354.092" width="36.2119" height="8.53784" filterUnits="userSpaceOnUse" color-interpolation-filters="sRGB">
<feFlood flood-opacity="0" result="BackgroundImageFix"/>
<feBlend mode="normal" in="SourceGraphic" in2="BackgroundImageFix" result="shape"/>
<feColorMatrix in="SourceAlpha" type="matrix" values="0 0 0 0 0 0 0 0 0 0 0 0 0 0 0 0 0 0 127 0" result="hardAlpha"/>
<feOffset dy="1"/>
<feGaussianBlur stdDeviation="2"/>
<feComposite in2="hardAlpha" operator="arithmetic" k2="-1" k3="1"/>
<feColorMatrix type="matrix" values="0 0 0 0 0 0 0 0 0 0 0 0 0 0 0 0 0 0 0.1 0"/>
<feBlend mode="normal" in2="shape" result="effect1_innerShadow_222_130"/>
</filter>
<filter id="filter21_i_222_130" x="267.279" y="28" width="35.1069" height="9.2085" filterUnits="userSpaceOnUse" color-interpolation-filters="sRGB">
<feFlood flood-opacity="0" result="BackgroundImageFix"/>
<feBlend mode="normal" in="SourceGraphic" in2="BackgroundImageFix" result="shape"/>
<feColorMatrix in="SourceAlpha" type="matrix" values="0 0 0 0 0 0 0 0 0 0 0 0 0 0 0 0 0 0 127 0" result="hardAlpha"/>
<feOffset dy="1"/>
<feGaussianBlur stdDeviation="2"/>
<feComposite in2="hardAlpha" operator="arithmetic" k2="-1" k3="1"/>
<feColorMatrix type="matrix" values="0 0 0 0 0 0 0 0 0 0 0 0 0 0 0 0 0 0 0.1 0"/>
<feBlend mode="normal" in2="shape" result="effect1_innerShadow_222_130"/>
</filter>
<filter id="filter22_i_222_130" x="262.721" y="139.812" width="36.6504" height="10.6882" filterUnits="userSpaceOnUse" color-interpolation-filters="sRGB">
<feFlood flood-opacity="0" result="BackgroundImageFix"/>
<feBlend mode="normal" in="SourceGraphic" in2="BackgroundImageFix" result="shape"/>
<feColorMatrix in="SourceAlpha" type="matrix" values="0 0 0 0 0 0 0 0 0 0 0 0 0 0 0 0 0 0 127 0" result="hardAlpha"/>
<feOffset dy="1"/>
<feGaussianBlur stdDeviation="2"/>
<feComposite in2="hardAlpha" operator="arithmetic" k2="-1" k3="1"/>
<feColorMatrix type="matrix" values="0 0 0 0 0 0 0 0 0 0 0 0 0 0 0 0 0 0 0.1 0"/>
<feBlend mode="normal" in2="shape" result="effect1_innerShadow_222_130"/>
</filter>
<filter id="filter23_i_222_130" x="256.442" y="366.454" width="36.2085" height="8.54614" filterUnits="userSpaceOnUse" color-interpolation-filters="sRGB">
<feFlood flood-opacity="0" result="BackgroundImageFix"/>
<feBlend mode="normal" in="SourceGraphic" in2="BackgroundImageFix" result="shape"/>
<feColorMatrix in="SourceAlpha" type="matrix" values="0 0 0 0 0 0 0 0 0 0 0 0 0 0 0 0 0 0 127 0" result="hardAlpha"/>
<feOffset dy="1"/>
<feGaussianBlur stdDeviation="2"/>
<feComposite in2="hardAlpha" operator="arithmetic" k2="-1" k3="1"/>
<feColorMatrix type="matrix" values="0 0 0 0 0 0 0 0 0 0 0 0 0 0 0 0 0 0 0.1 0"/>
<feBlend mode="normal" in2="shape" result="effect1_innerShadow_222_130"/>
</filter>
<filter id="filter24_i_222_130" x="272.325" y="191.822" width="45.2559" height="15.4734" filterUnits="userSpaceOnUse" color-interpolation-filters="sRGB">
<feFlood flood-opacity="0" result="BackgroundImageFix"/>
<feBlend mode="normal" in="SourceGraphic" in2="BackgroundImageFix" result="shape"/>
<feColorMatrix in="SourceAlpha" type="matrix" values="0 0 0 0 0 0 0 0 0 0 0 0 0 0 0 0 0 0 127 0" result="hardAlpha"/>
<feOffset dy="1"/>
<feGaussianBlur stdDeviation="2"/>
<feComposite in2="hardAlpha" operator="arithmetic" k2="-1" k3="1"/>
<feColorMatrix type="matrix" values="0 0 0 0 0 0 0 0 0 0 0 0 0 0 0 0 0 0 0.1 0"/>
<feBlend mode="normal" in2="shape" result="effect1_innerShadow_222_130"/>
</filter>
<filter id="filter25_i_222_130" x="256" y="256" width="36.9961" height="9.56909" filterUnits="userSpaceOnUse" color-interpolation-filters="sRGB">
<feFlood flood-opacity="0" result="BackgroundImageFix"/>
<feBlend mode="normal" in="SourceGraphic" in2="BackgroundImageFix" result="shape"/>
<feColorMatrix in="SourceAlpha" type="matrix" values="0 0 0 0 0 0 0 0 0 0 0 0 0 0 0 0 0 0 127 0" result="hardAlpha"/>
<feOffset dy="1"/>
<feGaussianBlur stdDeviation="2"/>
<feComposite in2="hardAlpha" operator="arithmetic" k2="-1" k3="1"/>
<feColorMatrix type="matrix" values="0 0 0 0 0 0 0 0 0 0 0 0 0 0 0 0 0 0 0.1 0"/>
<feBlend mode="normal" in2="shape" result="effect1_innerShadow_222_130"/>
</filter>
<linearGradient id="paint0_linear_222_130" x1="137.501" y1="323.634" x2="137.501" y2="337.191" gradientUnits="userSpaceOnUse">
<stop offset="0.155208" stop-color="#D9FF54"/>
<stop offset="1" stop-color="#ABDD00"/>
</linearGradient>
<linearGradient id="paint1_linear_222_130" x1="121" y1="304.91" x2="121" y2="316.73" gradientUnits="userSpaceOnUse">
<stop offset="0.155208" stop-color="#D9FF54"/>
<stop offset="1" stop-color="#ABDD00"/>
</linearGradient>
<linearGradient id="paint2_linear_222_130" x1="139.676" y1="265" x2="139.676" y2="306.03" gradientUnits="userSpaceOnUse">
<stop offset="0.155208" stop-color="#D9FF54"/>
<stop offset="1" stop-color="#ABDD00"/>
</linearGradient>
<linearGradient id="paint3_linear_222_130" x1="185.721" y1="264.5" x2="185.721" y2="317" gradientUnits="userSpaceOnUse">
<stop offset="0.155208" stop-color="#D9FF54"/>
<stop offset="1" stop-color="#ABDD00"/>
</linearGradient>
<linearGradient id="paint4_linear_222_130" x1="308.126" y1="167" x2="308.126" y2="194" gradientUnits="userSpaceOnUse">
<stop offset="0.155208" stop-color="#D9FF54"/>
<stop offset="1" stop-color="#ABDD00"/>
</linearGradient>
<linearGradient id="paint5_linear_222_130" x1="343.618" y1="155.5" x2="343.618" y2="209.035" gradientUnits="userSpaceOnUse">
<stop offset="0.155208" stop-color="#D9FF54"/>
<stop offset="1" stop-color="#ABDD00"/>
</linearGradient>
<linearGradient id="paint6_linear_222_130" x1="381.163" y1="168" x2="381.163" y2="202.208" gradientUnits="userSpaceOnUse">
<stop offset="0.155208" stop-color="#D9FF54"/>
<stop offset="1" stop-color="#ABDD00"/>
</linearGradient>
<linearGradient id="paint7_linear_222_130" x1="372.406" y1="235.421" x2="372.406" y2="245.138" gradientUnits="userSpaceOnUse">
<stop offset="0.155208" stop-color="#D9FF54"/>
<stop offset="1" stop-color="#ABDD00"/>
</linearGradient>
<linearGradient id="paint8_linear_222_130" x1="340.206" y1="241" x2="340.206" y2="274.5" gradientUnits="userSpaceOnUse">
<stop offset="0.155208" stop-color="#D9FF54"/>
<stop offset="1" stop-color="#ABDD00"/>
</linearGradient>
<linearGradient id="paint9_linear_222_130" x1="212.031" y1="21.9937" x2="212.031" y2="130.498" gradientUnits="userSpaceOnUse">
<stop stop-color="#8EB701"/>
<stop offset="0.795833" stop-color="#AAD121"/>
</linearGradient>
<linearGradient id="paint10_linear_222_130" x1="217.781" y1="133.68" x2="217.781" y2="246.322" gradientUnits="userSpaceOnUse">
<stop stop-color="#8EB701"/>
<stop offset="0.795833" stop-color="#AAD121"/>
</linearGradient>
<linearGradient id="paint11_linear_222_130" x1="220.814" y1="249.75" x2="220.814" y2="355.636" gradientUnits="userSpaceOnUse">
<stop stop-color="#8EB701"/>
<stop offset="0.795833" stop-color="#AAD121"/>
</linearGradient>
<linearGradient id="paint12_linear_222_130" x1="220.063" y1="359.203" x2="220.063" y2="471" gradientUnits="userSpaceOnUse">
<stop stop-color="#8EB701"/>
<stop offset="0.795833" stop-color="#AAD121"/>
</linearGradient>
<linearGradient id="paint13_linear_222_130" x1="283.325" y1="34" x2="283.325" y2="142.5" gradientUnits="userSpaceOnUse">
<stop stop-color="#8EB701"/>
<stop offset="0.795833" stop-color="#AAD121"/>
</linearGradient>
<linearGradient id="paint14_linear_222_130" x1="277.575" y1="145.684" x2="277.575" y2="258.569" gradientUnits="userSpaceOnUse">
<stop stop-color="#8EB701"/>
<stop offset="0.795833" stop-color="#AAD121"/>
</linearGradient>
<linearGradient id="paint15_linear_222_130" x1="274.575" y1="262" x2="274.575" y2="368" gradientUnits="userSpaceOnUse">
<stop stop-color="#8EB701"/>
<stop offset="0.795833" stop-color="#AAD121"/>
</linearGradient>
<linearGradient id="paint16_linear_222_130" x1="275.325" y1="371.57" x2="275.325" y2="483.488" gradientUnits="userSpaceOnUse">
<stop stop-color="#8EB701"/>
<stop offset="0.795833" stop-color="#AAD121"/>
</linearGradient>
<linearGradient id="paint17_linear_222_130" x1="210.555" y1="16" x2="210.555" y2="24.1998" gradientUnits="userSpaceOnUse">
<stop offset="0.108333" stop-color="#FFD96E"/>
<stop offset="0.561458" stop-color="#FFBC00"/>
</linearGradient>
<linearGradient id="paint18_linear_222_130" x1="214.278" y1="127.813" x2="214.278" y2="137.491" gradientUnits="userSpaceOnUse">
<stop offset="0.108333" stop-color="#FFD96E"/>
<stop offset="0.561458" stop-color="#FFBC00"/>
</linearGradient>
<linearGradient id="paint19_linear_222_130" x1="220.924" y1="243.756" x2="220.924" y2="252.316" gradientUnits="userSpaceOnUse">
<stop offset="0.108333" stop-color="#FFD96E"/>
<stop offset="0.561458" stop-color="#FFBC00"/>
</linearGradient>
<linearGradient id="paint20_linear_222_130" x1="220.842" y1="354.092" x2="220.842" y2="361.63" gradientUnits="userSpaceOnUse">
<stop offset="0.108333" stop-color="#FFD96E"/>
<stop offset="0.561458" stop-color="#FFBC00"/>
</linearGradient>
<linearGradient id="paint21_linear_222_130" x1="284.833" y1="28" x2="284.833" y2="36.2086" gradientUnits="userSpaceOnUse">
<stop offset="0.108333" stop-color="#FFD96E"/>
<stop offset="0.561458" stop-color="#FFBC00"/>
</linearGradient>
<linearGradient id="paint22_linear_222_130" x1="281.046" y1="139.812" x2="281.046" y2="149.5" gradientUnits="userSpaceOnUse">
<stop offset="0.108333" stop-color="#FFD96E"/>
<stop offset="0.561458" stop-color="#FFBC00"/>
</linearGradient>
<linearGradient id="paint23_linear_222_130" x1="274.546" y1="366.454" x2="274.546" y2="374" gradientUnits="userSpaceOnUse">
<stop offset="0.108333" stop-color="#FFD96E"/>
<stop offset="0.561458" stop-color="#FFBC00"/>
</linearGradient>
<linearGradient id="paint24_linear_222_130" x1="294.953" y1="191.822" x2="294.953" y2="206.296" gradientUnits="userSpaceOnUse">
<stop offset="0.155208" stop-color="#D9FF54"/>
<stop offset="1" stop-color="#ABDD00"/>
</linearGradient>
<linearGradient id="paint25_linear_222_130" x1="274.498" y1="256" x2="274.498" y2="264.569" gradientUnits="userSpaceOnUse">
<stop offset="0.108333" stop-color="#FFD96E"/>
<stop offset="0.561458" stop-color="#FFBC00"/>
</linearGradient>
</defs>
</svg>
