<svg width="500" height="500" viewBox="0 0 500 500" fill="none" xmlns="http://www.w3.org/2000/svg">
<g filter="url(#filter0_i_227_266)">
<path d="M170.5 326.713C166.666 323.713 141.5 318.5 104.5 336.5C126.5 339 170.9 334.484 170.5 326.713Z" fill="url(#paint0_linear_227_266)"/>
</g>
<path d="M170.5 326.713C166.666 323.713 141.5 318.5 104.5 336.5C126.5 339 170.9 334.484 170.5 326.713Z" stroke="#799C00" stroke-width="2"/>
<g filter="url(#filter1_i_227_266)">
<path d="M134.5 316.5C141.5 317.5 142.833 315 144 313.5C143.6 310.3 140.167 308.5 138.5 308C130.5 304.8 109.5 304 98 306C124 315.5 134.167 316.333 134.5 316.5Z" fill="url(#paint1_linear_227_266)"/>
</g>
<path d="M134.5 316.5C141.5 317.5 142.833 315 144 313.5C143.6 310.3 140.167 308.5 138.5 308C130.5 304.8 109.5 304 98 306C124 315.5 134.167 316.333 134.5 316.5Z" stroke="#799C00" stroke-width="2"/>
<g filter="url(#filter2_i_227_266)">
<path d="M150.5 302C156.1 306.8 162.833 306.333 165.5 305.5C167.1 301.5 162.833 295.833 161 294C158.2 291.6 151.667 286.833 148 284.5C147.2 283.7 126 270 113.5 265C118.5 273.5 140.333 293 150.5 302Z" fill="url(#paint2_linear_227_266)"/>
</g>
<path d="M150.5 302C156.1 306.8 162.833 306.333 165.5 305.5C167.1 301.5 162.833 295.833 161 294C158.2 291.6 151.667 286.833 148 284.5C147.2 283.7 126 270 113.5 265C118.5 273.5 140.333 293 150.5 302Z" stroke="#799C00" stroke-width="2"/>
<g filter="url(#filter3_i_227_266)">
<path d="M185.5 306.5C182.3 313.7 175.113 316.5 172.17 317C171.506 309.8 172.447 304 173 302C173.664 298.4 178.277 290.833 180.5 287.5C183.3 283.1 193 270 199.5 264.5C199 270 192 294 185.5 306.5Z" fill="url(#paint3_linear_227_266)"/>
</g>
<path d="M185.5 306.5C182.3 313.7 175.113 316.5 172.17 317C171.506 309.8 172.447 304 173 302C173.664 298.4 178.277 290.833 180.5 287.5C183.3 283.1 193 270 199.5 264.5C199 270 192 294 185.5 306.5Z" stroke="#799C00" stroke-width="2"/>
<g filter="url(#filter4_i_227_266)">
<path d="M314.325 194C310.992 192.833 302.325 186.5 299.325 167C310.325 173 322.325 190 314.325 194Z" fill="url(#paint4_linear_227_266)"/>
</g>
<path d="M314.325 194C310.992 192.833 302.325 186.5 299.325 167C310.325 173 322.325 190 314.325 194Z" stroke="#799C00" stroke-width="2"/>
<g filter="url(#filter5_i_227_266)">
<path d="M345.5 209.035C340.167 202.856 332.025 183.5 342.825 155.5C347.325 170.19 354.3 201.462 345.5 209.035Z" fill="url(#paint5_linear_227_266)"/>
</g>
<path d="M345.5 209.035C340.167 202.856 332.025 183.5 342.825 155.5C347.325 170.19 354.3 201.462 345.5 209.035Z" stroke="#799C00" stroke-width="2"/>
<g filter="url(#filter6_i_227_266)">
<path d="M360 202C361.667 194.167 372.325 176.4 402.325 168C394.325 184 372 204.5 360 202Z" fill="url(#paint6_linear_227_266)"/>
</g>
<path d="M360 202C361.667 194.167 372.325 176.4 402.325 168C394.325 184 372 204.5 360 202Z" stroke="#799C00" stroke-width="2"/>
<g filter="url(#filter7_i_227_266)">
<path d="M345.5 240C352.166 236.333 372.125 231.4 399.325 241C380.992 244.333 344.7 248.8 345.5 240Z" fill="url(#paint7_linear_227_266)"/>
</g>
<path d="M345.5 240C352.166 236.333 372.125 231.4 399.325 241C380.992 244.333 344.7 248.8 345.5 240Z" stroke="#799C00" stroke-width="2"/>
<g filter="url(#filter8_i_227_266)">
<path d="M360.325 274.5C347.125 253.7 331.837 243.5 325.756 241L320.5 241.615C316.295 250.107 345.24 267.077 360.325 274.5Z" fill="url(#paint8_linear_227_266)"/>
</g>
<path d="M360.325 274.5C347.125 253.7 331.837 243.5 325.756 241L320.5 241.615C316.295 250.107 345.24 267.077 360.325 274.5Z" stroke="#799C00" stroke-width="2"/>
<path d="M143.719 314.96C143.189 314.805 142.885 314.249 143.04 313.719C143.195 313.189 143.751 312.885 144.281 313.04L143.719 314.96ZM164.763 306.176C164.39 305.769 164.417 305.136 164.824 304.763C165.231 304.39 165.864 304.417 166.237 304.824L164.763 306.176ZM169.5 311.591L170.381 311.117L169.5 311.591ZM172.17 317L171.261 317.417L172.17 317ZM166.113 324.082L166.62 323.22L166.113 324.082ZM168.5 325.5L169.015 324.643L169.015 324.643L168.5 325.5ZM170.5 326.713L171.022 325.86L171.022 325.86L170.5 326.713ZM205.393 352.295C199.086 347.482 188.108 339.188 177.456 332.283L178.544 330.605C189.266 337.555 200.297 345.891 206.607 350.705L205.393 352.295ZM168.619 312.064C167.258 309.531 165.935 307.454 164.763 306.176L166.237 304.824C167.583 306.293 169.001 308.55 170.381 311.117L168.619 312.064ZM177.056 331.776C175.837 328.303 173.673 322.668 171.261 317.417L173.079 316.583C175.522 321.901 177.709 327.596 178.943 331.113L177.056 331.776ZM171.261 317.417C170.399 315.54 169.508 313.717 168.619 312.064L170.381 311.117C171.294 312.817 172.204 314.678 173.079 316.583L171.261 317.417ZM165.607 324.944C157.373 320.112 149.564 316.67 143.719 314.96L144.281 313.04C150.324 314.809 158.285 318.329 166.62 323.22L165.607 324.944ZM167.985 326.357C167.189 325.879 166.396 325.408 165.607 324.944L166.62 323.22C167.415 323.686 168.214 324.161 169.015 324.643L167.985 326.357ZM177.456 332.283C174.978 330.677 172.472 329.093 169.978 327.566L171.022 325.86C173.533 327.397 176.054 328.991 178.544 330.605L177.456 332.283ZM169.978 327.566C169.312 327.159 168.648 326.755 167.985 326.357L169.015 324.643C169.683 325.044 170.352 325.45 171.022 325.86L169.978 327.566Z" fill="#799C00"/>
<g filter="url(#filter9_i_227_266)">
<path d="M197.497 130.498C203.922 126.724 220.967 127.704 230 128.806C227.5 99.9019 223.364 37.9765 226.564 21.9937C220.23 23.6585 204.862 25.9894 194.061 21.9937L195.779 76.2461L197.497 130.498Z" fill="url(#paint9_linear_227_266)"/>
</g>
<path d="M197.497 130.498C203.922 126.724 220.967 127.704 230 128.806C227.5 99.9019 223.364 37.9765 226.564 21.9937C220.23 23.6585 204.862 25.9894 194.061 21.9937L195.779 76.2461L197.497 130.498Z" stroke="#799C00" stroke-width="2"/>
<g filter="url(#filter10_i_227_266)">
<path d="M203.562 243.756C213.163 248.151 230.564 245.92 238.065 244.256C235.398 208.461 229.9 136.692 231.5 135.493C233.5 133.995 199.997 131.498 197.497 137.491C200.331 172.62 204 241 203.562 243.756Z" fill="url(#paint10_linear_227_266)"/>
</g>
<path d="M203.562 243.756C213.163 248.151 230.564 245.92 238.065 244.256C235.398 208.461 229.9 136.692 231.5 135.493C233.5 133.995 199.997 131.498 197.497 137.491C200.331 172.62 204 241 203.562 243.756Z" stroke="#799C00" stroke-width="2"/>
<g filter="url(#filter11_i_227_266)">
<path d="M204.062 355.636C223.664 352.839 234.898 354.47 238.065 355.636C237.565 323.504 236.865 257.441 238.065 250.249C229.731 251.914 211.163 254.145 203.562 249.75C205.713 275.066 207.671 332.838 204.062 355.636Z" fill="url(#paint11_linear_227_266)"/>
</g>
<path d="M204.062 355.636C223.664 352.839 234.898 354.47 238.065 355.636C237.565 323.504 236.865 257.441 238.065 250.249C229.731 251.914 211.163 254.145 203.562 249.75C205.713 275.066 207.671 332.838 204.062 355.636Z" stroke="#799C00" stroke-width="2"/>
<g filter="url(#filter12_i_227_266)">
<path d="M202.062 469.014C217.663 472.611 231.898 470.513 237.065 469.014L238.065 361.63C226.864 357.234 210.729 359.798 204.062 361.63C209.663 382.407 205.062 441.877 202.062 469.014Z" fill="url(#paint12_linear_227_266)"/>
</g>
<path d="M202.062 469.014C217.663 472.611 231.898 470.513 237.065 469.014L238.065 361.63C226.864 357.234 210.729 359.798 204.062 361.63C209.663 382.407 205.062 441.877 202.062 469.014Z" stroke="#799C00" stroke-width="2"/>
<g filter="url(#filter13_i_227_266)">
<path d="M297.825 142.5C291.401 138.721 274.357 139.702 265.325 140.806C267.825 111.87 272.025 50 268.825 34C275.159 35.6667 290.525 38 301.325 34L297.825 142.5Z" fill="url(#paint13_linear_227_266)"/>
</g>
<path d="M297.825 142.5C291.401 138.721 274.357 139.702 265.325 140.806C267.825 111.87 272.025 50 268.825 34C275.159 35.6667 290.525 38 301.325 34L297.825 142.5Z" stroke="#799C00" stroke-width="2"/>
<g filter="url(#filter14_i_227_266)">
<path d="M292 256C282.4 260.4 264.825 258.167 257.325 256.5C259.992 220.667 265.425 148.7 263.825 147.5C261.825 146 295.325 143.5 297.825 149.5C295.025 155.1 293.325 181.001 292.825 193.251C292.425 211.451 292.167 245.334 292 256Z" fill="url(#paint14_linear_227_266)"/>
</g>
<path d="M292 256C282.4 260.4 264.825 258.167 257.325 256.5C259.992 220.667 265.425 148.7 263.825 147.5C261.825 146 295.325 143.5 297.825 149.5C295.025 155.1 293.325 181.001 292.825 193.251C292.425 211.451 292.167 245.334 292 256Z" stroke="#799C00" stroke-width="2"/>
<g filter="url(#filter15_i_227_266)">
<path d="M291.325 368C271.725 365.2 260.492 366.833 257.325 368C257.825 335.833 258.525 269.7 257.325 262.5C265.658 264.167 284.225 266.4 291.825 262C289.492 289.5 286.125 349.2 291.325 368Z" fill="url(#paint15_linear_227_266)"/>
</g>
<path d="M291.325 368C271.725 365.2 260.492 366.833 257.325 368C257.825 335.833 258.525 269.7 257.325 262.5C265.658 264.167 284.225 266.4 291.825 262C289.492 289.5 286.125 349.2 291.325 368Z" stroke="#799C00" stroke-width="2"/>
<g filter="url(#filter16_i_227_266)">
<path d="M293.325 481.5C277.725 485.1 263.492 483 258.325 481.5L257.325 374C268.525 369.6 284.659 372.166 291.325 374C285.725 394.8 290.325 454.333 293.325 481.5Z" fill="url(#paint16_linear_227_266)"/>
</g>
<path d="M293.325 481.5C277.725 485.1 263.492 483 258.325 481.5L257.325 374C268.525 369.6 284.659 372.166 291.325 374C285.725 394.8 290.325 454.333 293.325 481.5Z" stroke="#799C00" stroke-width="2"/>
<g filter="url(#filter17_i_227_266)">
<path d="M194.061 21.9936C204.862 25.9893 220.23 23.6585 226.564 21.9936C227.73 21.3276 229.364 19.2965 226.564 16.4995C219.896 17.6649 204.062 19.1966 194.061 16C193.26 17.7418 192.139 21.3791 194.061 21.9936Z" fill="url(#paint17_linear_227_266)"/>
</g>
<path d="M194.061 21.9936C204.862 25.9893 220.23 23.6585 226.564 21.9936C227.73 21.3276 229.364 19.2965 226.564 16.4995C219.896 17.6649 204.062 19.1966 194.061 16C193.26 17.7418 192.139 21.3791 194.061 21.9936Z" stroke="#799C00" stroke-width="2"/>
<g filter="url(#filter18_i_227_266)">
<path d="M231.5 135.493C231.555 135.453 231.583 135.411 231.586 135.369C232.409 134.13 233.432 131.316 231.5 129C231.03 128.936 230.529 128.871 230 128.806C220.967 127.704 203.922 126.724 197.497 130.499C196.33 132.33 194.697 136.293 197.497 137.491C199.929 131.661 231.697 133.865 231.586 135.369C231.557 135.412 231.528 135.454 231.5 135.493Z" fill="url(#paint18_linear_227_266)"/>
</g>
<path d="M231.5 135.493C233.5 133.995 199.997 131.498 197.497 137.491C194.697 136.293 196.33 132.33 197.497 130.499C203.922 126.724 220.967 127.704 230 128.806C230.529 128.871 231.03 128.936 231.5 129C233.5 131.398 232.333 134.328 231.5 135.493Z" stroke="#799C00" stroke-width="2"/>
<g filter="url(#filter19_i_227_266)">
<path d="M203.562 249.749C211.163 254.145 229.731 251.914 238.065 250.249C239.065 249.416 240.465 247.052 238.065 244.255C230.564 245.92 213.163 248.151 203.562 243.756C202.729 245.254 201.562 248.551 203.562 249.749Z" fill="url(#paint19_linear_227_266)"/>
</g>
<path d="M203.562 249.749C211.163 254.145 229.731 251.914 238.065 250.249C239.065 249.416 240.465 247.052 238.065 244.255C230.564 245.92 213.163 248.151 203.562 243.756C202.729 245.254 201.562 248.551 203.562 249.749Z" stroke="#799C00" stroke-width="2"/>
<g filter="url(#filter20_i_227_266)">
<path d="M238.065 361.63C226.864 357.234 210.729 359.798 204.062 361.63C201.662 358.433 203.062 356.302 204.062 355.636C223.663 352.839 234.898 354.471 238.065 355.636C239.665 358.433 238.731 360.797 238.065 361.63Z" fill="url(#paint20_linear_227_266)"/>
</g>
<path d="M238.065 361.63C226.864 357.234 210.729 359.798 204.062 361.63C201.662 358.433 203.062 356.302 204.062 355.636C223.663 352.839 234.898 354.471 238.065 355.636C239.665 358.433 238.731 360.797 238.065 361.63Z" stroke="#799C00" stroke-width="2"/>
<g filter="url(#filter21_i_227_266)">
<path d="M301.325 34C290.525 38 275.159 35.6667 268.825 34C267.659 33.3333 266.025 31.3 268.825 28.5C275.492 29.6667 291.325 31.2 301.325 28C302.126 29.7437 303.247 33.3849 301.325 34Z" fill="url(#paint21_linear_227_266)"/>
</g>
<path d="M301.325 34C290.525 38 275.159 35.6667 268.825 34C267.659 33.3333 266.025 31.3 268.825 28.5C275.492 29.6667 291.325 31.2 301.325 28C302.126 29.7437 303.247 33.3849 301.325 34Z" stroke="#799C00" stroke-width="2"/>
<g filter="url(#filter22_i_227_266)">
<path d="M263.825 147.5C263.771 147.459 263.742 147.417 263.739 147.375C262.916 146.135 261.893 143.318 263.825 141C264.295 140.935 264.796 140.87 265.325 140.805C274.357 139.702 291.401 138.721 297.825 142.5C298.992 144.333 300.625 148.3 297.825 149.5C295.393 143.663 263.628 145.87 263.739 147.375C263.768 147.419 263.797 147.46 263.825 147.5Z" fill="url(#paint22_linear_227_266)"/>
</g>
<path d="M263.825 147.5C261.825 146 295.325 143.5 297.825 149.5C300.625 148.3 298.992 144.333 297.825 142.5C291.401 138.721 274.357 139.702 265.325 140.805C264.796 140.87 264.295 140.935 263.825 141C261.825 143.4 262.992 146.333 263.825 147.5Z" stroke="#799C00" stroke-width="2"/>
<g filter="url(#filter23_i_227_266)">
<path d="M257.325 374C268.525 369.6 284.659 372.167 291.325 374C293.725 370.8 292.325 368.667 291.325 368C271.725 365.2 260.492 366.833 257.325 368C255.725 370.8 256.659 373.167 257.325 374Z" fill="url(#paint23_linear_227_266)"/>
</g>
<path d="M257.325 374C268.525 369.6 284.659 372.167 291.325 374C293.725 370.8 292.325 368.667 291.325 368C271.725 365.2 260.492 366.833 257.325 368C255.725 370.8 256.659 373.167 257.325 374Z" stroke="#799C00" stroke-width="2"/>
<g filter="url(#filter24_i_227_266)">
<path d="M292.825 201.25C285.212 198.332 277.544 194.713 272.325 192C280.095 191.507 286.939 192.078 292.825 193.251C306.03 195.882 313.828 201.542 317 205C313.391 208.029 303.451 205.323 292.825 201.25Z" fill="url(#paint24_linear_227_266)"/>
</g>
<path d="M292.825 201.25C285.212 198.332 277.544 194.713 272.325 192C280.095 191.507 286.939 192.078 292.825 193.251C306.03 195.882 313.828 201.542 317 205C313.391 208.029 303.451 205.323 292.825 201.25Z" stroke="#799C00" stroke-width="2"/>
<path d="M360.338 202.441C360.858 202.254 361.128 201.682 360.941 201.162C360.754 200.642 360.182 200.372 359.662 200.559L360.338 202.441ZM314.992 194.124C315.061 193.576 314.672 193.076 314.124 193.008C313.576 192.939 313.076 193.328 313.008 193.876L314.992 194.124ZM320.581 212L319.659 212.386L320.581 212ZM317.581 205L318.514 204.64L317.581 205ZM345.257 241.47C345.793 241.604 346.336 241.278 346.47 240.743C346.604 240.207 346.278 239.664 345.743 239.53L345.257 241.47ZM325.756 241L325.646 240.006L325.756 241ZM320.5 241.615L320.622 242.608L320.5 241.615ZM345.5 209.035L346.012 209.894L346.012 209.894L345.5 209.035ZM326.41 222.865C325.067 219.911 323.262 215.818 321.504 211.614L319.659 212.386C321.425 216.61 323.239 220.723 324.59 223.693L326.41 222.865ZM321.504 211.614C320.483 209.173 319.382 206.888 318.514 204.64L316.648 205.36C317.516 207.608 318.707 210.11 319.659 212.386L321.504 211.614ZM318.514 204.64C317.513 202.047 316.582 199.682 315.92 197.778C315.59 196.827 315.335 196.015 315.174 195.363C315.004 194.675 314.972 194.287 314.992 194.124L313.008 193.876C312.938 194.436 313.059 195.139 313.232 195.842C313.415 196.582 313.693 197.462 314.031 198.435C314.708 200.38 315.657 202.793 316.648 205.36L318.514 204.64ZM292.263 258.646C293.667 256.989 295.457 254.59 297.402 252.1C299.366 249.587 301.517 246.941 303.705 244.698L302.273 243.302C300.005 245.627 297.799 248.343 295.826 250.869C293.834 253.419 292.108 255.735 290.737 257.354L292.263 258.646ZM303.705 244.698C310.046 238.197 317.8 230.862 326.133 224.054L324.868 222.505C316.464 229.371 308.655 236.759 302.273 243.302L303.705 244.698ZM325.867 241.994C330.343 241.495 334.62 241.215 338.084 241.138C341.595 241.059 344.148 241.193 345.257 241.47L345.743 239.53C344.334 239.178 341.519 239.06 338.039 239.138C334.511 239.217 330.175 239.502 325.646 240.006L325.867 241.994ZM303.138 244.989C307.689 244.303 314.114 243.403 320.622 242.608L320.379 240.622C313.851 241.42 307.407 242.323 302.84 243.011L303.138 244.989ZM320.622 242.608C322.376 242.393 324.136 242.187 325.867 241.994L325.646 240.006C323.907 240.2 322.14 240.407 320.379 240.622L320.622 242.608ZM326.133 224.054C332.553 218.808 339.306 213.883 346.012 209.894L344.989 208.175C338.175 212.229 331.34 217.216 324.868 222.505L326.133 224.054ZM346.012 209.894C350.936 206.965 355.729 204.098 360.338 202.441L359.662 200.559C354.834 202.294 349.864 205.275 344.989 208.175L346.012 209.894Z" fill="#799C00"/>
<g filter="url(#filter25_i_227_266)">
<path d="M291.825 262C284.225 266.4 265.658 264.167 257.325 262.5C256.325 261.667 254.925 259.3 257.325 256.5C264.825 258.167 282.4 260.4 292 256C292.833 257.5 293.825 260.8 291.825 262Z" fill="url(#paint25_linear_227_266)"/>
</g>
<path d="M291.825 262C284.225 266.4 265.658 264.167 257.325 262.5C256.325 261.667 254.925 259.3 257.325 256.5C264.825 258.167 282.4 260.4 292 256C292.833 257.5 293.825 260.8 291.825 262Z" stroke="#799C00" stroke-width="2"/>
<defs>
<filter id="filter0_i_227_266" x="100.97" y="322.634" width="70.5327" height="16.5571" filterUnits="userSpaceOnUse" color-interpolation-filters="sRGB">
<feFlood flood-opacity="0" result="BackgroundImageFix"/>
<feBlend mode="normal" in="SourceGraphic" in2="BackgroundImageFix" result="shape"/>
<feColorMatrix in="SourceAlpha" type="matrix" values="0 0 0 0 0 0 0 0 0 0 0 0 0 0 0 0 0 0 127 0" result="hardAlpha"/>
<feOffset dy="1"/>
<feGaussianBlur stdDeviation="2"/>
<feComposite in2="hardAlpha" operator="arithmetic" k2="-1" k3="1"/>
<feColorMatrix type="matrix" values="0 0 0 0 0 0 0 0 0 0 0 0 0 0 0 0 0 0 0.1 0"/>
<feBlend mode="normal" in2="shape" result="effect1_innerShadow_227_266"/>
</filter>
<filter id="filter1_i_227_266" x="94.1436" y="303.91" width="50.8999" height="14.8198" filterUnits="userSpaceOnUse" color-interpolation-filters="sRGB">
<feFlood flood-opacity="0" result="BackgroundImageFix"/>
<feBlend mode="normal" in="SourceGraphic" in2="BackgroundImageFix" result="shape"/>
<feColorMatrix in="SourceAlpha" type="matrix" values="0 0 0 0 0 0 0 0 0 0 0 0 0 0 0 0 0 0 127 0" result="hardAlpha"/>
<feOffset dy="1"/>
<feGaussianBlur stdDeviation="2"/>
<feComposite in2="hardAlpha" operator="arithmetic" k2="-1" k3="1"/>
<feColorMatrix type="matrix" values="0 0 0 0 0 0 0 0 0 0 0 0 0 0 0 0 0 0 0.1 0"/>
<feBlend mode="normal" in2="shape" result="effect1_innerShadow_227_266"/>
</filter>
<filter id="filter2_i_227_266" x="111.154" y="262.985" width="55.6982" height="45.0449" filterUnits="userSpaceOnUse" color-interpolation-filters="sRGB">
<feFlood flood-opacity="0" result="BackgroundImageFix"/>
<feBlend mode="normal" in="SourceGraphic" in2="BackgroundImageFix" result="shape"/>
<feColorMatrix in="SourceAlpha" type="matrix" values="0 0 0 0 0 0 0 0 0 0 0 0 0 0 0 0 0 0 127 0" result="hardAlpha"/>
<feOffset dy="1"/>
<feGaussianBlur stdDeviation="2"/>
<feComposite in2="hardAlpha" operator="arithmetic" k2="-1" k3="1"/>
<feColorMatrix type="matrix" values="0 0 0 0 0 0 0 0 0 0 0 0 0 0 0 0 0 0 0.1 0"/>
<feBlend mode="normal" in2="shape" result="effect1_innerShadow_227_266"/>
</filter>
<filter id="filter3_i_227_266" x="170.942" y="262.161" width="29.7749" height="57.0059" filterUnits="userSpaceOnUse" color-interpolation-filters="sRGB">
<feFlood flood-opacity="0" result="BackgroundImageFix"/>
<feBlend mode="normal" in="SourceGraphic" in2="BackgroundImageFix" result="shape"/>
<feColorMatrix in="SourceAlpha" type="matrix" values="0 0 0 0 0 0 0 0 0 0 0 0 0 0 0 0 0 0 127 0" result="hardAlpha"/>
<feOffset dy="1"/>
<feGaussianBlur stdDeviation="2"/>
<feComposite in2="hardAlpha" operator="arithmetic" k2="-1" k3="1"/>
<feColorMatrix type="matrix" values="0 0 0 0 0 0 0 0 0 0 0 0 0 0 0 0 0 0 0.1 0"/>
<feBlend mode="normal" in2="shape" result="effect1_innerShadow_227_266"/>
</filter>
<filter id="filter4_i_227_266" x="298.029" y="165.154" width="19.8979" height="30.9292" filterUnits="userSpaceOnUse" color-interpolation-filters="sRGB">
<feFlood flood-opacity="0" result="BackgroundImageFix"/>
<feBlend mode="normal" in="SourceGraphic" in2="BackgroundImageFix" result="shape"/>
<feColorMatrix in="SourceAlpha" type="matrix" values="0 0 0 0 0 0 0 0 0 0 0 0 0 0 0 0 0 0 127 0" result="hardAlpha"/>
<feOffset dy="1"/>
<feGaussianBlur stdDeviation="2"/>
<feComposite in2="hardAlpha" operator="arithmetic" k2="-1" k3="1"/>
<feColorMatrix type="matrix" values="0 0 0 0 0 0 0 0 0 0 0 0 0 0 0 0 0 0 0.1 0"/>
<feBlend mode="normal" in2="shape" result="effect1_innerShadow_227_266"/>
</filter>
<filter id="filter5_i_227_266" x="336.511" y="152.44" width="14.2139" height="59.0039" filterUnits="userSpaceOnUse" color-interpolation-filters="sRGB">
<feFlood flood-opacity="0" result="BackgroundImageFix"/>
<feBlend mode="normal" in="SourceGraphic" in2="BackgroundImageFix" result="shape"/>
<feColorMatrix in="SourceAlpha" type="matrix" values="0 0 0 0 0 0 0 0 0 0 0 0 0 0 0 0 0 0 127 0" result="hardAlpha"/>
<feOffset dy="1"/>
<feGaussianBlur stdDeviation="2"/>
<feComposite in2="hardAlpha" operator="arithmetic" k2="-1" k3="1"/>
<feColorMatrix type="matrix" values="0 0 0 0 0 0 0 0 0 0 0 0 0 0 0 0 0 0 0.1 0"/>
<feBlend mode="normal" in2="shape" result="effect1_innerShadow_227_266"/>
</filter>
<filter id="filter6_i_227_266" x="358.813" y="166.429" width="45.416" height="37.7798" filterUnits="userSpaceOnUse" color-interpolation-filters="sRGB">
<feFlood flood-opacity="0" result="BackgroundImageFix"/>
<feBlend mode="normal" in="SourceGraphic" in2="BackgroundImageFix" result="shape"/>
<feColorMatrix in="SourceAlpha" type="matrix" values="0 0 0 0 0 0 0 0 0 0 0 0 0 0 0 0 0 0 127 0" result="hardAlpha"/>
<feOffset dy="1"/>
<feGaussianBlur stdDeviation="2"/>
<feComposite in2="hardAlpha" operator="arithmetic" k2="-1" k3="1"/>
<feColorMatrix type="matrix" values="0 0 0 0 0 0 0 0 0 0 0 0 0 0 0 0 0 0 0.1 0"/>
<feBlend mode="normal" in2="shape" result="effect1_innerShadow_227_266"/>
</filter>
<filter id="filter7_i_227_266" x="344.487" y="234.421" width="58.7217" height="12.7168" filterUnits="userSpaceOnUse" color-interpolation-filters="sRGB">
<feFlood flood-opacity="0" result="BackgroundImageFix"/>
<feBlend mode="normal" in="SourceGraphic" in2="BackgroundImageFix" result="shape"/>
<feColorMatrix in="SourceAlpha" type="matrix" values="0 0 0 0 0 0 0 0 0 0 0 0 0 0 0 0 0 0 127 0" result="hardAlpha"/>
<feOffset dy="1"/>
<feGaussianBlur stdDeviation="2"/>
<feComposite in2="hardAlpha" operator="arithmetic" k2="-1" k3="1"/>
<feColorMatrix type="matrix" values="0 0 0 0 0 0 0 0 0 0 0 0 0 0 0 0 0 0 0.1 0"/>
<feBlend mode="normal" in2="shape" result="effect1_innerShadow_227_266"/>
</filter>
<filter id="filter8_i_227_266" x="319.087" y="239.977" width="43.9888" height="37.9917" filterUnits="userSpaceOnUse" color-interpolation-filters="sRGB">
<feFlood flood-opacity="0" result="BackgroundImageFix"/>
<feBlend mode="normal" in="SourceGraphic" in2="BackgroundImageFix" result="shape"/>
<feColorMatrix in="SourceAlpha" type="matrix" values="0 0 0 0 0 0 0 0 0 0 0 0 0 0 0 0 0 0 127 0" result="hardAlpha"/>
<feOffset dy="1"/>
<feGaussianBlur stdDeviation="2"/>
<feComposite in2="hardAlpha" operator="arithmetic" k2="-1" k3="1"/>
<feColorMatrix type="matrix" values="0 0 0 0 0 0 0 0 0 0 0 0 0 0 0 0 0 0 0.1 0"/>
<feBlend mode="normal" in2="shape" result="effect1_innerShadow_227_266"/>
</filter>
<filter id="filter9_i_227_266" x="193.015" y="20.5403" width="38.0879" height="112.674" filterUnits="userSpaceOnUse" color-interpolation-filters="sRGB">
<feFlood flood-opacity="0" result="BackgroundImageFix"/>
<feBlend mode="normal" in="SourceGraphic" in2="BackgroundImageFix" result="shape"/>
<feColorMatrix in="SourceAlpha" type="matrix" values="0 0 0 0 0 0 0 0 0 0 0 0 0 0 0 0 0 0 127 0" result="hardAlpha"/>
<feOffset dy="1"/>
<feGaussianBlur stdDeviation="2"/>
<feComposite in2="hardAlpha" operator="arithmetic" k2="-1" k3="1"/>
<feColorMatrix type="matrix" values="0 0 0 0 0 0 0 0 0 0 0 0 0 0 0 0 0 0 0.1 0"/>
<feBlend mode="normal" in2="shape" result="effect1_innerShadow_227_266"/>
</filter>
<filter id="filter10_i_227_266" x="196.481" y="132.68" width="42.6455" height="115.643" filterUnits="userSpaceOnUse" color-interpolation-filters="sRGB">
<feFlood flood-opacity="0" result="BackgroundImageFix"/>
<feBlend mode="normal" in="SourceGraphic" in2="BackgroundImageFix" result="shape"/>
<feColorMatrix in="SourceAlpha" type="matrix" values="0 0 0 0 0 0 0 0 0 0 0 0 0 0 0 0 0 0 127 0" result="hardAlpha"/>
<feOffset dy="1"/>
<feGaussianBlur stdDeviation="2"/>
<feComposite in2="hardAlpha" operator="arithmetic" k2="-1" k3="1"/>
<feColorMatrix type="matrix" values="0 0 0 0 0 0 0 0 0 0 0 0 0 0 0 0 0 0 0.1 0"/>
<feBlend mode="normal" in2="shape" result="effect1_innerShadow_227_266"/>
</filter>
<filter id="filter11_i_227_266" x="202.403" y="247.924" width="36.8862" height="110.153" filterUnits="userSpaceOnUse" color-interpolation-filters="sRGB">
<feFlood flood-opacity="0" result="BackgroundImageFix"/>
<feBlend mode="normal" in="SourceGraphic" in2="BackgroundImageFix" result="shape"/>
<feColorMatrix in="SourceAlpha" type="matrix" values="0 0 0 0 0 0 0 0 0 0 0 0 0 0 0 0 0 0 127 0" result="hardAlpha"/>
<feOffset dy="1"/>
<feGaussianBlur stdDeviation="2"/>
<feComposite in2="hardAlpha" operator="arithmetic" k2="-1" k3="1"/>
<feColorMatrix type="matrix" values="0 0 0 0 0 0 0 0 0 0 0 0 0 0 0 0 0 0 0.1 0"/>
<feBlend mode="normal" in2="shape" result="effect1_innerShadow_227_266"/>
</filter>
<filter id="filter12_i_227_266" x="200.97" y="358.203" width="38.1011" height="114.797" filterUnits="userSpaceOnUse" color-interpolation-filters="sRGB">
<feFlood flood-opacity="0" result="BackgroundImageFix"/>
<feBlend mode="normal" in="SourceGraphic" in2="BackgroundImageFix" result="shape"/>
<feColorMatrix in="SourceAlpha" type="matrix" values="0 0 0 0 0 0 0 0 0 0 0 0 0 0 0 0 0 0 127 0" result="hardAlpha"/>
<feOffset dy="1"/>
<feGaussianBlur stdDeviation="2"/>
<feComposite in2="hardAlpha" operator="arithmetic" k2="-1" k3="1"/>
<feColorMatrix type="matrix" values="0 0 0 0 0 0 0 0 0 0 0 0 0 0 0 0 0 0 0.1 0"/>
<feBlend mode="normal" in2="shape" result="effect1_innerShadow_227_266"/>
</filter>
<filter id="filter13_i_227_266" x="264.223" y="32.5457" width="38.1499" height="112.67" filterUnits="userSpaceOnUse" color-interpolation-filters="sRGB">
<feFlood flood-opacity="0" result="BackgroundImageFix"/>
<feBlend mode="normal" in="SourceGraphic" in2="BackgroundImageFix" result="shape"/>
<feColorMatrix in="SourceAlpha" type="matrix" values="0 0 0 0 0 0 0 0 0 0 0 0 0 0 0 0 0 0 127 0" result="hardAlpha"/>
<feOffset dy="1"/>
<feGaussianBlur stdDeviation="2"/>
<feComposite in2="hardAlpha" operator="arithmetic" k2="-1" k3="1"/>
<feColorMatrix type="matrix" values="0 0 0 0 0 0 0 0 0 0 0 0 0 0 0 0 0 0 0.1 0"/>
<feBlend mode="normal" in2="shape" result="effect1_innerShadow_227_266"/>
</filter>
<filter id="filter14_i_227_266" x="256.264" y="144.685" width="42.6606" height="115.885" filterUnits="userSpaceOnUse" color-interpolation-filters="sRGB">
<feFlood flood-opacity="0" result="BackgroundImageFix"/>
<feBlend mode="normal" in="SourceGraphic" in2="BackgroundImageFix" result="shape"/>
<feColorMatrix in="SourceAlpha" type="matrix" values="0 0 0 0 0 0 0 0 0 0 0 0 0 0 0 0 0 0 127 0" result="hardAlpha"/>
<feOffset dy="1"/>
<feGaussianBlur stdDeviation="2"/>
<feComposite in2="hardAlpha" operator="arithmetic" k2="-1" k3="1"/>
<feColorMatrix type="matrix" values="0 0 0 0 0 0 0 0 0 0 0 0 0 0 0 0 0 0 0.1 0"/>
<feBlend mode="normal" in2="shape" result="effect1_innerShadow_227_266"/>
</filter>
<filter id="filter15_i_227_266" x="256.101" y="260.174" width="36.8828" height="110.269" filterUnits="userSpaceOnUse" color-interpolation-filters="sRGB">
<feFlood flood-opacity="0" result="BackgroundImageFix"/>
<feBlend mode="normal" in="SourceGraphic" in2="BackgroundImageFix" result="shape"/>
<feColorMatrix in="SourceAlpha" type="matrix" values="0 0 0 0 0 0 0 0 0 0 0 0 0 0 0 0 0 0 127 0" result="hardAlpha"/>
<feOffset dy="1"/>
<feGaussianBlur stdDeviation="2"/>
<feComposite in2="hardAlpha" operator="arithmetic" k2="-1" k3="1"/>
<feColorMatrix type="matrix" values="0 0 0 0 0 0 0 0 0 0 0 0 0 0 0 0 0 0 0.1 0"/>
<feBlend mode="normal" in2="shape" result="effect1_innerShadow_227_266"/>
</filter>
<filter id="filter16_i_227_266" x="256.319" y="370.57" width="38.0981" height="114.917" filterUnits="userSpaceOnUse" color-interpolation-filters="sRGB">
<feFlood flood-opacity="0" result="BackgroundImageFix"/>
<feBlend mode="normal" in="SourceGraphic" in2="BackgroundImageFix" result="shape"/>
<feColorMatrix in="SourceAlpha" type="matrix" values="0 0 0 0 0 0 0 0 0 0 0 0 0 0 0 0 0 0 127 0" result="hardAlpha"/>
<feOffset dy="1"/>
<feGaussianBlur stdDeviation="2"/>
<feComposite in2="hardAlpha" operator="arithmetic" k2="-1" k3="1"/>
<feColorMatrix type="matrix" values="0 0 0 0 0 0 0 0 0 0 0 0 0 0 0 0 0 0 0.1 0"/>
<feBlend mode="normal" in2="shape" result="effect1_innerShadow_227_266"/>
</filter>
<filter id="filter17_i_227_266" x="192" y="14.7778" width="37.1108" height="11.4221" filterUnits="userSpaceOnUse" color-interpolation-filters="sRGB">
<feFlood flood-opacity="0" result="BackgroundImageFix"/>
<feBlend mode="normal" in="SourceGraphic" in2="BackgroundImageFix" result="shape"/>
<feColorMatrix in="SourceAlpha" type="matrix" values="0 0 0 0 0 0 0 0 0 0 0 0 0 0 0 0 0 0 127 0" result="hardAlpha"/>
<feOffset dy="1"/>
<feGaussianBlur stdDeviation="2"/>
<feComposite in2="hardAlpha" operator="arithmetic" k2="-1" k3="1"/>
<feColorMatrix type="matrix" values="0 0 0 0 0 0 0 0 0 0 0 0 0 0 0 0 0 0 0.1 0"/>
<feBlend mode="normal" in2="shape" result="effect1_innerShadow_227_266"/>
</filter>
<filter id="filter18_i_227_266" x="194.951" y="126.813" width="38.6533" height="12.9941" filterUnits="userSpaceOnUse" color-interpolation-filters="sRGB">
<feFlood flood-opacity="0" result="BackgroundImageFix"/>
<feBlend mode="normal" in="SourceGraphic" in2="BackgroundImageFix" result="shape"/>
<feColorMatrix in="SourceAlpha" type="matrix" values="0 0 0 0 0 0 0 0 0 0 0 0 0 0 0 0 0 0 127 0" result="hardAlpha"/>
<feOffset dy="1"/>
<feGaussianBlur stdDeviation="2"/>
<feComposite in2="hardAlpha" operator="arithmetic" k2="-1" k3="1"/>
<feColorMatrix type="matrix" values="0 0 0 0 0 0 0 0 0 0 0 0 0 0 0 0 0 0 0.1 0"/>
<feBlend mode="normal" in2="shape" result="effect1_innerShadow_227_266"/>
</filter>
<filter id="filter19_i_227_266" x="201.459" y="242.462" width="38.9312" height="11.854" filterUnits="userSpaceOnUse" color-interpolation-filters="sRGB">
<feFlood flood-opacity="0" result="BackgroundImageFix"/>
<feBlend mode="normal" in="SourceGraphic" in2="BackgroundImageFix" result="shape"/>
<feColorMatrix in="SourceAlpha" type="matrix" values="0 0 0 0 0 0 0 0 0 0 0 0 0 0 0 0 0 0 127 0" result="hardAlpha"/>
<feOffset dy="1"/>
<feGaussianBlur stdDeviation="2"/>
<feComposite in2="hardAlpha" operator="arithmetic" k2="-1" k3="1"/>
<feColorMatrix type="matrix" values="0 0 0 0 0 0 0 0 0 0 0 0 0 0 0 0 0 0 0.1 0"/>
<feBlend mode="normal" in2="shape" result="effect1_innerShadow_227_266"/>
</filter>
<filter id="filter20_i_227_266" x="201.736" y="353.092" width="38.2124" height="10.7378" filterUnits="userSpaceOnUse" color-interpolation-filters="sRGB">
<feFlood flood-opacity="0" result="BackgroundImageFix"/>
<feBlend mode="normal" in="SourceGraphic" in2="BackgroundImageFix" result="shape"/>
<feColorMatrix in="SourceAlpha" type="matrix" values="0 0 0 0 0 0 0 0 0 0 0 0 0 0 0 0 0 0 127 0" result="hardAlpha"/>
<feOffset dy="1"/>
<feGaussianBlur stdDeviation="2"/>
<feComposite in2="hardAlpha" operator="arithmetic" k2="-1" k3="1"/>
<feColorMatrix type="matrix" values="0 0 0 0 0 0 0 0 0 0 0 0 0 0 0 0 0 0 0.1 0"/>
<feBlend mode="normal" in2="shape" result="effect1_innerShadow_227_266"/>
</filter>
<filter id="filter21_i_227_266" x="266.278" y="26.7776" width="37.1079" height="11.4312" filterUnits="userSpaceOnUse" color-interpolation-filters="sRGB">
<feFlood flood-opacity="0" result="BackgroundImageFix"/>
<feBlend mode="normal" in="SourceGraphic" in2="BackgroundImageFix" result="shape"/>
<feColorMatrix in="SourceAlpha" type="matrix" values="0 0 0 0 0 0 0 0 0 0 0 0 0 0 0 0 0 0 127 0" result="hardAlpha"/>
<feOffset dy="1"/>
<feGaussianBlur stdDeviation="2"/>
<feComposite in2="hardAlpha" operator="arithmetic" k2="-1" k3="1"/>
<feColorMatrix type="matrix" values="0 0 0 0 0 0 0 0 0 0 0 0 0 0 0 0 0 0 0.1 0"/>
<feBlend mode="normal" in2="shape" result="effect1_innerShadow_227_266"/>
</filter>
<filter id="filter22_i_227_266" x="261.721" y="138.812" width="38.6504" height="13.0054" filterUnits="userSpaceOnUse" color-interpolation-filters="sRGB">
<feFlood flood-opacity="0" result="BackgroundImageFix"/>
<feBlend mode="normal" in="SourceGraphic" in2="BackgroundImageFix" result="shape"/>
<feColorMatrix in="SourceAlpha" type="matrix" values="0 0 0 0 0 0 0 0 0 0 0 0 0 0 0 0 0 0 127 0" result="hardAlpha"/>
<feOffset dy="1"/>
<feGaussianBlur stdDeviation="2"/>
<feComposite in2="hardAlpha" operator="arithmetic" k2="-1" k3="1"/>
<feColorMatrix type="matrix" values="0 0 0 0 0 0 0 0 0 0 0 0 0 0 0 0 0 0 0.1 0"/>
<feBlend mode="normal" in2="shape" result="effect1_innerShadow_227_266"/>
</filter>
<filter id="filter23_i_227_266" x="255.441" y="365.454" width="38.2095" height="10.7461" filterUnits="userSpaceOnUse" color-interpolation-filters="sRGB">
<feFlood flood-opacity="0" result="BackgroundImageFix"/>
<feBlend mode="normal" in="SourceGraphic" in2="BackgroundImageFix" result="shape"/>
<feColorMatrix in="SourceAlpha" type="matrix" values="0 0 0 0 0 0 0 0 0 0 0 0 0 0 0 0 0 0 127 0" result="hardAlpha"/>
<feOffset dy="1"/>
<feGaussianBlur stdDeviation="2"/>
<feComposite in2="hardAlpha" operator="arithmetic" k2="-1" k3="1"/>
<feColorMatrix type="matrix" values="0 0 0 0 0 0 0 0 0 0 0 0 0 0 0 0 0 0 0.1 0"/>
<feBlend mode="normal" in2="shape" result="effect1_innerShadow_227_266"/>
</filter>
<filter id="filter24_i_227_266" x="268.675" y="190.822" width="49.7681" height="17.4736" filterUnits="userSpaceOnUse" color-interpolation-filters="sRGB">
<feFlood flood-opacity="0" result="BackgroundImageFix"/>
<feBlend mode="normal" in="SourceGraphic" in2="BackgroundImageFix" result="shape"/>
<feColorMatrix in="SourceAlpha" type="matrix" values="0 0 0 0 0 0 0 0 0 0 0 0 0 0 0 0 0 0 127 0" result="hardAlpha"/>
<feOffset dy="1"/>
<feGaussianBlur stdDeviation="2"/>
<feComposite in2="hardAlpha" operator="arithmetic" k2="-1" k3="1"/>
<feColorMatrix type="matrix" values="0 0 0 0 0 0 0 0 0 0 0 0 0 0 0 0 0 0 0.1 0"/>
<feBlend mode="normal" in2="shape" result="effect1_innerShadow_227_266"/>
</filter>
<filter id="filter25_i_227_266" x="255" y="254.705" width="38.9951" height="11.8643" filterUnits="userSpaceOnUse" color-interpolation-filters="sRGB">
<feFlood flood-opacity="0" result="BackgroundImageFix"/>
<feBlend mode="normal" in="SourceGraphic" in2="BackgroundImageFix" result="shape"/>
<feColorMatrix in="SourceAlpha" type="matrix" values="0 0 0 0 0 0 0 0 0 0 0 0 0 0 0 0 0 0 127 0" result="hardAlpha"/>
<feOffset dy="1"/>
<feGaussianBlur stdDeviation="2"/>
<feComposite in2="hardAlpha" operator="arithmetic" k2="-1" k3="1"/>
<feColorMatrix type="matrix" values="0 0 0 0 0 0 0 0 0 0 0 0 0 0 0 0 0 0 0.1 0"/>
<feBlend mode="normal" in2="shape" result="effect1_innerShadow_227_266"/>
</filter>
<linearGradient id="paint0_linear_227_266" x1="137.501" y1="323.634" x2="137.501" y2="337.191" gradientUnits="userSpaceOnUse">
<stop offset="0.155208" stop-color="#D9FF54"/>
<stop offset="1" stop-color="#ABDD00"/>
</linearGradient>
<linearGradient id="paint1_linear_227_266" x1="121" y1="304.91" x2="121" y2="316.73" gradientUnits="userSpaceOnUse">
<stop offset="0.155208" stop-color="#D9FF54"/>
<stop offset="1" stop-color="#ABDD00"/>
</linearGradient>
<linearGradient id="paint2_linear_227_266" x1="139.676" y1="265" x2="139.676" y2="306.03" gradientUnits="userSpaceOnUse">
<stop offset="0.155208" stop-color="#D9FF54"/>
<stop offset="1" stop-color="#ABDD00"/>
</linearGradient>
<linearGradient id="paint3_linear_227_266" x1="185.721" y1="264.5" x2="185.721" y2="317" gradientUnits="userSpaceOnUse">
<stop offset="0.155208" stop-color="#D9FF54"/>
<stop offset="1" stop-color="#ABDD00"/>
</linearGradient>
<linearGradient id="paint4_linear_227_266" x1="308.126" y1="167" x2="308.126" y2="194" gradientUnits="userSpaceOnUse">
<stop offset="0.155208" stop-color="#D9FF54"/>
<stop offset="1" stop-color="#ABDD00"/>
</linearGradient>
<linearGradient id="paint5_linear_227_266" x1="343.618" y1="155.5" x2="343.618" y2="209.035" gradientUnits="userSpaceOnUse">
<stop offset="0.155208" stop-color="#D9FF54"/>
<stop offset="1" stop-color="#ABDD00"/>
</linearGradient>
<linearGradient id="paint6_linear_227_266" x1="381.163" y1="168" x2="381.163" y2="202.208" gradientUnits="userSpaceOnUse">
<stop offset="0.155208" stop-color="#D9FF54"/>
<stop offset="1" stop-color="#ABDD00"/>
</linearGradient>
<linearGradient id="paint7_linear_227_266" x1="372.406" y1="235.421" x2="372.406" y2="245.138" gradientUnits="userSpaceOnUse">
<stop offset="0.155208" stop-color="#D9FF54"/>
<stop offset="1" stop-color="#ABDD00"/>
</linearGradient>
<linearGradient id="paint8_linear_227_266" x1="340.206" y1="241" x2="340.206" y2="274.5" gradientUnits="userSpaceOnUse">
<stop offset="0.155208" stop-color="#D9FF54"/>
<stop offset="1" stop-color="#ABDD00"/>
</linearGradient>
<linearGradient id="paint9_linear_227_266" x1="212.031" y1="21.9937" x2="212.031" y2="130.498" gradientUnits="userSpaceOnUse">
<stop stop-color="#8EB701"/>
<stop offset="0.795833" stop-color="#AAD121"/>
</linearGradient>
<linearGradient id="paint10_linear_227_266" x1="217.781" y1="133.68" x2="217.781" y2="246.322" gradientUnits="userSpaceOnUse">
<stop stop-color="#8EB701"/>
<stop offset="0.795833" stop-color="#AAD121"/>
</linearGradient>
<linearGradient id="paint11_linear_227_266" x1="220.814" y1="249.75" x2="220.814" y2="355.636" gradientUnits="userSpaceOnUse">
<stop stop-color="#8EB701"/>
<stop offset="0.795833" stop-color="#AAD121"/>
</linearGradient>
<linearGradient id="paint12_linear_227_266" x1="220.063" y1="359.203" x2="220.063" y2="471" gradientUnits="userSpaceOnUse">
<stop stop-color="#8EB701"/>
<stop offset="0.795833" stop-color="#AAD121"/>
</linearGradient>
<linearGradient id="paint13_linear_227_266" x1="283.325" y1="34" x2="283.325" y2="142.5" gradientUnits="userSpaceOnUse">
<stop stop-color="#8EB701"/>
<stop offset="0.795833" stop-color="#AAD121"/>
</linearGradient>
<linearGradient id="paint14_linear_227_266" x1="277.575" y1="145.685" x2="277.575" y2="258.569" gradientUnits="userSpaceOnUse">
<stop stop-color="#8EB701"/>
<stop offset="0.795833" stop-color="#AAD121"/>
</linearGradient>
<linearGradient id="paint15_linear_227_266" x1="274.575" y1="262" x2="274.575" y2="368" gradientUnits="userSpaceOnUse">
<stop stop-color="#8EB701"/>
<stop offset="0.795833" stop-color="#AAD121"/>
</linearGradient>
<linearGradient id="paint16_linear_227_266" x1="275.325" y1="371.57" x2="275.325" y2="483.488" gradientUnits="userSpaceOnUse">
<stop stop-color="#8EB701"/>
<stop offset="0.795833" stop-color="#AAD121"/>
</linearGradient>
<linearGradient id="paint17_linear_227_266" x1="210.555" y1="16" x2="210.555" y2="24.1998" gradientUnits="userSpaceOnUse">
<stop offset="0.108333" stop-color="#FFD96E"/>
<stop offset="0.561458" stop-color="#FFBC00"/>
</linearGradient>
<linearGradient id="paint18_linear_227_266" x1="214.278" y1="127.813" x2="214.278" y2="137.491" gradientUnits="userSpaceOnUse">
<stop offset="0.108333" stop-color="#FFD96E"/>
<stop offset="0.561458" stop-color="#FFBC00"/>
</linearGradient>
<linearGradient id="paint19_linear_227_266" x1="220.924" y1="243.756" x2="220.924" y2="252.316" gradientUnits="userSpaceOnUse">
<stop offset="0.108333" stop-color="#FFD96E"/>
<stop offset="0.561458" stop-color="#FFBC00"/>
</linearGradient>
<linearGradient id="paint20_linear_227_266" x1="220.842" y1="354.092" x2="220.842" y2="361.63" gradientUnits="userSpaceOnUse">
<stop offset="0.108333" stop-color="#FFD96E"/>
<stop offset="0.561458" stop-color="#FFBC00"/>
</linearGradient>
<linearGradient id="paint21_linear_227_266" x1="284.833" y1="28" x2="284.833" y2="36.2086" gradientUnits="userSpaceOnUse">
<stop offset="0.108333" stop-color="#FFD96E"/>
<stop offset="0.561458" stop-color="#FFBC00"/>
</linearGradient>
<linearGradient id="paint22_linear_227_266" x1="281.046" y1="139.812" x2="281.046" y2="149.5" gradientUnits="userSpaceOnUse">
<stop offset="0.108333" stop-color="#FFD96E"/>
<stop offset="0.561458" stop-color="#FFBC00"/>
</linearGradient>
<linearGradient id="paint23_linear_227_266" x1="274.546" y1="366.454" x2="274.546" y2="374" gradientUnits="userSpaceOnUse">
<stop offset="0.108333" stop-color="#FFD96E"/>
<stop offset="0.561458" stop-color="#FFBC00"/>
</linearGradient>
<linearGradient id="paint24_linear_227_266" x1="294.953" y1="191.822" x2="294.953" y2="206.296" gradientUnits="userSpaceOnUse">
<stop offset="0.155208" stop-color="#D9FF54"/>
<stop offset="1" stop-color="#ABDD00"/>
</linearGradient>
<linearGradient id="paint25_linear_227_266" x1="274.498" y1="256" x2="274.498" y2="264.569" gradientUnits="userSpaceOnUse">
<stop offset="0.108333" stop-color="#FFD96E"/>
<stop offset="0.561458" stop-color="#FFBC00"/>
</linearGradient>
</defs>
</svg>
