<svg width="500" height="500" viewBox="0 0 500 500" fill="none" xmlns="http://www.w3.org/2000/svg">
<path d="M291.325 374C285.725 394.8 290.325 454.333 293.325 481.5C277.725 485.1 263.492 483 258.325 481.5L257.325 374M291.325 374C284.658 372.167 268.525 369.6 257.325 374M291.325 374C293.725 370.8 292.325 368.667 291.325 368M257.325 374C256.658 373.167 255.725 370.8 257.325 368M257.325 368C260.492 366.833 271.725 365.2 291.325 368M257.325 368C257.825 335.833 258.525 269.7 257.325 262.5M291.325 368C286.125 349.2 289.492 289.5 291.825 262M257.325 262.5C265.658 264.167 284.225 266.4 291.825 262M257.325 262.5C256.325 261.667 254.925 259.3 257.325 256.5M291.825 262C293.825 260.8 292.833 257.5 292 256M257.325 256.5C264.825 258.167 282.4 260.4 292 256M257.325 256.5C259.992 220.667 265.425 148.7 263.825 147.5M292 256C294.775 252.724 298.533 248.568 302.989 244M292 256C292.167 245.333 292.425 219.45 292.825 201.25M263.825 147.5C261.825 146 295.325 143.5 297.825 149.5M263.825 147.5C262.992 146.333 261.825 143.4 263.825 141C264.295 140.935 264.796 140.87 265.325 140.806M297.825 149.5C300.625 148.3 298.992 144.333 297.825 142.5M297.825 149.5C295.025 155.1 293.325 181.001 292.825 193.251M297.825 142.5C291.401 138.721 274.357 139.702 265.325 140.806M297.825 142.5L301.325 34M265.325 140.806C267.825 111.87 272.025 50 268.825 34M268.825 34C275.159 35.6667 290.525 38 301.325 34M268.825 34C267.659 33.3333 266.025 31.3 268.825 28.5C275.492 29.6667 291.325 31.2 301.325 28C302.126 29.7437 303.247 33.3849 301.325 34M360 202C361.667 194.167 372.325 176.4 402.325 168C394.325 184 372 204.5 360 202ZM360 202C355.281 203.696 350.4 206.12 345.5 209.035M325.5 223.279C324.152 220.317 322.343 216.214 320.581 212C319.595 209.641 318.449 207.248 317.581 205M325.5 223.279C317.132 230.117 309.35 237.478 302.989 244M325.5 223.279C331.946 218.012 338.74 213.056 345.5 209.035M314.325 194C310.992 192.833 302.325 186.5 299.325 167C310.325 173 322.325 190 314.325 194ZM314.325 194C314.145 195.445 315.589 199.839 317.581 205M317.581 205C313.972 208.029 303.451 205.323 292.825 201.25M317.581 205C314.409 201.542 306.03 195.882 292.825 193.251M302.989 244C307.547 243.313 313.982 242.411 320.5 241.615M345.5 240C352.167 236.333 372.125 231.4 399.325 241C380.992 244.333 344.7 248.8 345.5 240ZM345.5 240C342.983 239.371 334.762 239.997 325.756 241M325.756 241C331.837 243.5 347.125 253.7 360.325 274.5C345.24 267.077 316.295 250.107 320.5 241.615M325.756 241C324.022 241.193 322.258 241.4 320.5 241.615M292.825 201.25C285.212 198.332 277.544 194.713 272.325 192C280.095 191.507 286.939 192.078 292.825 193.251M345.5 209.035C340.167 202.856 332.025 183.5 342.825 155.5C347.325 170.19 354.3 201.462 345.5 209.035Z" stroke="#799C00" stroke-width="2"/>
<path d="M204.062 361.629C209.663 382.407 205.062 441.877 202.062 469.014C217.663 472.611 231.898 470.513 237.065 469.014L238.065 361.629M204.062 361.629C210.729 359.798 226.864 357.234 238.065 361.629M204.062 361.629C201.662 358.433 203.062 356.302 204.062 355.636M238.065 361.629C238.732 360.797 239.665 358.433 238.065 355.636M238.065 355.636C234.898 354.47 223.664 352.839 204.062 355.636M238.065 355.636C237.565 323.504 236.865 257.441 238.065 250.249M204.062 355.636C204.47 354.163 204.825 352.44 205.132 350.5M238.065 250.249C229.731 251.914 211.163 254.145 203.562 249.749M238.065 250.249C239.065 249.417 240.465 247.052 238.065 244.255M203.562 249.749C201.562 248.551 202.729 245.254 203.562 243.756M203.562 249.749C205.713 275.066 208.741 327.702 205.132 350.5M238.065 244.255C230.564 245.92 213.163 248.151 203.562 243.756M238.065 244.255C235.398 208.46 229.9 136.692 231.5 135.493M203.562 243.756C205.563 242.957 200.331 172.62 197.497 137.491M231.5 135.493C233.5 133.995 199.997 131.497 197.497 137.491M231.5 135.493C232.333 134.328 233.5 131.397 231.5 129C231.03 128.936 230.529 128.871 230 128.806M197.497 137.491C194.697 136.292 196.33 132.33 197.497 130.498M197.497 130.498C203.922 126.724 220.967 127.704 230 128.806M197.497 130.498L194.061 21.9936M230 128.806C227.5 99.9018 223.364 37.9764 226.564 21.9936M226.564 21.9936C220.23 23.6585 204.862 25.9893 194.061 21.9936M226.564 21.9936C227.731 21.3276 229.364 19.2965 226.564 16.4995C219.897 17.6649 204.062 19.1966 194.061 16C193.26 17.7418 192.14 21.3791 194.061 21.9936M205.132 350.5C198.823 345.687 188.687 338.372 178 331.444M144 313.5C142.833 315 141.5 317.5 134.5 316.5C134.167 316.333 124 315.5 98 306C109.5 304 130.5 304.8 138.5 308C140.167 308.5 143.6 310.3 144 313.5ZM144 313.5C149.944 315.24 157.829 319.221 166.114 324.082C166.906 324.547 167.702 325.02 168.5 325.5M178 331.444C176.773 327.949 174.597 322.284 172.17 317M178 331.444C175.516 329.834 173.002 328.245 170.5 326.713M165.5 305.5C162.833 306.333 156.1 306.8 150.5 302C140.333 293 118.5 273.5 113.5 265C126 270 147.2 283.7 148 284.5C151.667 286.833 158.2 291.6 161 294C162.833 295.833 167.1 301.5 165.5 305.5ZM165.5 305.5C166.759 306.873 168.13 309.041 169.5 311.591C170.401 313.267 171.302 315.109 172.17 317M172.17 317C175.113 316.5 182.3 313.7 185.5 306.5C192 294 199 270 199.5 264.5C193 270 183.3 283.1 180.5 287.5C178.277 290.833 173.664 298.4 173 302C172.447 304 171.506 309.8 172.17 317ZM168.5 325.5C164.667 322.5 141.5 318.5 104.5 336.5C126.5 339 170.9 334.484 170.5 326.713M168.5 325.5C169.165 325.9 169.832 326.304 170.5 326.713" stroke="#799C00" stroke-width="2"/>
</svg>
